<?xml version="1.0" encoding="UTF-8"?>
<svg id="_레이어_1" data-name="레이어 1" xmlns="http://www.w3.org/2000/svg" viewBox="0 0 841.89 849.44">
  <defs>
    <style>
      .cls-1 {
        stroke: rgba(233, 72, 51, .9);
      }

      .cls-1, .cls-2 {
        fill: none;
        stroke-linecap: round;
        stroke-linejoin: round;
      }

      .cls-2 {
        stroke: rgba(4, 0, 0, .7);
      }
    </style>
  </defs>
  <path class="cls-2" d="M457.07,286.25h0l.92.18h.18l.55.55.74.55,1.11,3.32.18,1.29.55,2.21,1.47,5.34v.18l.18.74v.18l.55,2.03.74,2.21v.55l1.29,4.97.74,3.13.18.74.18,2.58.37,2.03.18,2.03.18,1.11h2.4l1.66-.18h2.21l1.66-.18.18,1.11v.74l.18,1.66-.18-1.66v-.74l-.18-1.11-1.66.18h-2.21l-1.66.18h-2.4l-.18-1.11-.18-2.03-.37-2.03-.18-2.58-.18-.74-.74-3.13-1.29-4.97v-.55l-.74-2.21-.55-2.03v-.18l-.18-.74v-.18l-1.47-5.34-.55-2.21-.18-1.29-1.11-3.32-.37-1.11-.18-.74v-.55l.18-.92v-.74h0v-.18l-.18-.18v-.18l-.37-.37-.37-.18-.18-.18-.37-.18h-.74l-.92.37-1.11.92h-.18l-.55.55-.37.18-.74.55-3.5,2.58-3.13,2.4-1.29.92.18.37.92-.74,2.95-2.21.55-.37,3.68-2.58.55-.37.92-.92,1.29-.92h.18l.37.55"/>
  <path class="cls-1" d="M456.7,283.31l1.29,2.03-.55.74-.37.18h0"/>
  <path class="cls-1" d="M310.35,286.07l1.29,2.03-.55.74-.37.18h0"/>
  <path class="cls-2" d="M310.72,289.02h0l.92.18h.18l.55.55.74.55-.37-1.11-.18-.74v-.55l.18-.92v-.74h0v-.18l-.18-.18v-.18l-.37-.37-.37-.18-.18-.18-.37-.18h-.74l-.92.37-1.11.92h-.18l-.55.55-.37.18-.74.55-3.5,2.58-3.13,2.4-1.29.92-2.21,1.66-2.4,1.84-4.42,3.13-.18.18-.18.18-3.5,2.76-1.11.92-.74.37-1.11.92-.92,1.11-.37.37-.74,2.03-.55,1.29-1.47,5.16-.18.37-1.29,3.32.55.18.92-2.21.37-.55.37-.18.55-.18h.37l.37-.18.18-.18h.18l.18-.18,1.29-.55.18-.18.18.18.37.18.74.74,1.47,1.29,1.11.92.92.74,3.13,2.03,1.11.55,1.29.74,1.29.55-1.29-.55-1.29-.74-1.11-.55-3.13-2.03-.92-.74-1.11-.92-1.47-1.29-.74-.74-.37-.18-.18-.18-.18.18-1.29.55-.18.18-.55-.18-.37-.37v-1.11l-.18-1.29,1.29-3.87.74-1.84.18-.18.74-.74,2.21-1.84.92-.74,1.29-1.11,2.03-1.84.55-.18.74-.55,3.13-2.4,2.4-1.84,2.58-1.84.92-.74,2.95-2.21.55-.37,3.68-2.58.55-.37.92-.92,1.29-.92h.18l.37.55"/>
  <path class="cls-1" d="M745.5,288.19l1.29,2.03-.55.74-.37.18h0"/>
  <path class="cls-2" d="M745.87,291.14h0l.92.18h.18l.55.55.74.55,1.11,3.32.18,1.29.55,2.21,1.47,5.34v.18l.18.74v.18l.55,2.03.74,2.21v.55h.74l2.03-.55,4.97-1.29h.18l1.29-.37h.18l-.18-1.47-.37-2.95-.18-3.5.18-1.29v-1.84h.55l.18.18,1.29.74.18.18.55.55v.18-.18l-.55-.55-.18-.18-1.29-.74-.18-.18h-.55v1.84l-.18,1.29.18,3.5.37,2.95.18,1.47h-.18l-1.29.37h-.18v.37l.37,3.87v1.11l-3.13.74h-.37l-1.47.37-1.29.18-.55.18.74,3.13.18.74h-.55l-1.66.18h-4.24v-.18h-.18v-.18h-.18l-.18.18h0l-.18.18h-2.03l-.55.18h-.18l-.37-.18-.92-.55-.74-.55h-.18l-.74-.74-.37-.55-.37-.18-.55-.37-1.47-.37-.74-.18-.55-.55-1.47-1.29-.55-.74-.92-1.29-1.11-2.21-2.76.37-3.32-2.03-.55-.18-.55-.18-.37-.18h-.18l-.18-.18h-.18l-.37-.18-.55-.18-.55-.18-.55-.18-1.66-.18-2.03-.37.92-.74,1.29-1.11,2.03-1.84.55-.18.74-.55,3.13-2.4,2.4-1.84,2.58-1.84.92-.74,2.95-2.21.55-.37,3.68-2.58.55-.37.92-.92,1.29-.92h.18l.37.55"/>
  <path class="cls-1" d="M652.98,289.39l1.29,2.03-.55.74-.37.18h0"/>
  <path class="cls-2" d="M653.35,292.33h0l.92.18h.18l.55.55.74.55,1.11,3.32.18,1.29.55,2.21,1.47,5.34v.18l.18.74.55-.18.74-.18,2.21-.37,4.97-1.11v.74l.18.74.37,3.5-4.97,1.29-2.03.55h-1.29l-1.47.55-3.68.92-.37.37.18.92.92,3.32-.92-3.32-.18-.92-2.21.18-.74-1.29-.74-1.47-1.29-1.84-1.47.37-1.66.37-2.21.74-2.4.55-2.76.37-1.84,2.21-.74,1.11-.74,1.84-.55,1.84h.74l1.29-4.05.92.18.55.18.55.92.37.55-.18,1.29.18-1.29-.37-.55-.55-.92-.55-.18-.92-.18-1.29,4.05h-.74l.55-1.84.74-1.84.74-1.11,1.84-2.21-3.32-2.03-.55-.18-.55-.18-.37-.18h-.18l-.18-.18h-.18l-.37-.18-.55-.18-.55-.18-.55-.18-1.66-.18-2.03-.37.92-.74,1.29-1.11,2.03-1.84.55-.18.74-.55,3.13-2.4,2.4-1.84,2.58-1.84.92-.74,2.95-2.21.55-.37,3.68-2.58.55-.37.92-.92,1.29-.92h.18l.37.55"/>
  <path class="cls-1" d="M214.52,287.45l1.29,2.03-.55.74-.37.18h0"/>
  <path class="cls-2" d="M214.89,290.4h0l.92.18h.18l.55.55.74.55,1.11,3.32.18,1.29.55,2.21,1.47,5.34v.18l.18.74v.18l.55,2.03.74,2.21v.55l1.29,4.97.55-.18,1.29-.18h0l-1.29.18-.55.18.74,3.13.18.74h-.55l-1.66.18h-4.24v-.18h-.18v-.18h-.18l-.18.18h0l-.18.18h-2.03l-.55.18-.55-.18-.92-.55-.74-.55h-.18l-.74-.74-.37-.55-.37-.18-.55-.37-1.47-.37-.74-.18-1.11.37-.37.18h-.37l-.37.37-.18.55-.18.55-.18.37-.18.74v.37-.37l.18-.74.18-.37.18-.55.18-.55.37-.37h.37l.37-.18,1.11-.37-.55-.55-1.47-1.29-.55-.74-.92-1.29-1.11-2.21-2.76.37-3.32-2.03-.55-.18-.55-.18-.37-.18h-.18l-.18-.18h-.18l-.37-.18-.55-.18-.55-.18-.55-.18-1.66-.18-2.03-.37-.55-.18-.74.37-1.11.92-.92,1.11-.37.37-.74,2.03-.55,1.29-1.47,5.16-.18.37-1.29,3.32.55.18.92-2.21.37-.55.37-.18.55-.18h.37l.37-.18.18-.18h.18l.18-.18,1.29-.55.18-.18-.18.18-1.29.55-.18.18-.55-.18-.37-.37v-1.11l-.18-1.29,1.29-3.87.74-1.84.18-.18.74-.74,2.21-1.84.92-.74,1.29-1.11,2.03-1.84.55-.18.74-.55,3.13-2.4,2.4-1.84,2.58-1.84.92-.74,2.95-2.21.55-.37,3.68-2.58.55-.37.92-.92,1.29-.92h.18l.37.55"/>
  <path class="cls-1" d="M565.99,287.63l1.29,2.03-.55.74-.37.18h0"/>
  <path class="cls-2" d="M566.36,290.58h0l.92.18h.18l.55.55.74.55,1.11,3.32.18,1.29.55,2.21,1.47,5.34v.18l.18.74v.18l.55,2.03.74,2.21v.55l1.29,4.97.74,3.13.18.74h-.55l-1.66.18h-4.24v-.18h-.18v-.18h-.18l-.18.18h0l-.18.18h-2.03l-.55.18-.55-.18-.92-.55-.74-.55h-.18l-.74-.74-.37-.55-.37-.18-.55-.37-1.47-.37-.74-.18-.55-.55-1.47-1.29-.55-.74-.92-1.29-1.11-2.21-2.76.37-1.84,2.21-.74,1.11-.74,1.84-.55,1.84-.18.55.18.37v.55l-.18.18-.18.55-.55.92-.37.37h-.55l-.18-.18v-.18l-.18-.37-.37-.37-.92-1.29-.74-1.11-.37-.74-.37-.74v-.37l.18-.55.18-.37.37-.55.37-.55.37-.37.55-.37.74-.37.37-.37.37-.18.74-.55h0l.37-.37.55-.74.18-.37v-.55l-.37-.55v-.55l-.55-.18-.37-.18h-.18l-.18-.18h-.18l-.37-.18-.55-.18-.55-.18-.55-.18-1.66-.18-2.03-.37-.55-.18-.74.37-1.11.92-.92,1.11-.37.37-.74,2.03-.55,1.29-2.95-.55-.37-.18v-1.11l-.18-1.11-.18-.74v-.74l-1.47-1.11-2.95-1.66,2.95,1.66,1.47,1.11,1.84,1.11,1.29-2.95.92.37,1.29,2.21.37.37.74-.74,2.21-1.84.92-.74,1.29-1.11,2.03-1.84.55-.18.74-.55,3.13-2.4,2.4-1.84,2.58-1.84.92-.74,2.95-2.21.55-.37,3.68-2.58.55-.37.92-.92,1.29-.92h.18l.37.55"/>
  <path class="cls-2" d="M390.53,312.6h0l.92.18h.18l.55.55.74.55-.37-1.11-.18-.74v-.55l.18-.92v-.74h0v-.18l-.18-.18v-.18l-.37-.37-.37-.18-.18-.18-.37-.18h-.74l-.92.37-1.11.92h-.18l-.55.55-.37.18-.74.55-3.5,2.58-3.13,2.4-1.29.92-2.21,1.66-2.4,1.84-4.42,3.13-.18.18-.18.18-1.66-2.95-.92-1.66-1.29-2.03,4.97-2.95,1.47-.92,1.11-.55-1.66-2.95-.55-.92-.55-.92,2.4-1.47-1.66-2.76-1.47-2.58-1.29-2.21-.18-.18,3.5-2.03,1.29-.74,4.42-2.58-1.47-2.58-1.66-2.76,2.03-.92.92-.37.74-.37,2.21-.92,2.95-1.29,1.84-.74-1.84.74-2.95,1.29-2.21.92-.74.37.55.92.92,1.66,2.95,4.79v.37l2.58,4.05.37.74.55.74,2.4,4.24,1.11,2.03.18.18.18,1.11v1.47l-.37.55h-.18l-.55.55-.37.18-.74.55-3.5,2.58-3.13,2.4-1.29.92.18.37.92-.74,2.95-2.21.55-.37,3.68-2.58.55-.37.92-.92,1.29-.92h.18l.37.55"/>
  <path class="cls-1" d="M390.16,309.65l1.29,2.03-.55.74-.37.18h0"/>
  <path class="cls-1" d="M111.31,288.19l1.29,2.03-.55.74-.37.18h0"/>
  <path class="cls-2" d="M111.68,291.14h0l.92.18h.18l.55.55.74.55,1.11,3.32.18,1.29.55,2.21,1.47,5.34v.18l.18.74v.18l.55,2.03.74,2.21v.55h.74l2.03-.55,4.97-1.29h.18l1.29-.37h.18l-.18-1.47-.37-2.95-.18-3.5.18-1.29v-1.84h.55l.18.18.92.55-.92-.55-.18-.18h-.55v1.84l-.18,1.29.18,3.5.37,2.95.18,1.47h-.18l-1.29.37h-.18l-4.97,1.29-2.03.55h-.74l1.29,4.97.74,3.13.18.74h-.55l-1.66.18h-4.24v-.18h-.18v-.18h-.18l-.18.18h0l-.18.18h-2.03l-.55.18-.55-.18-.92-.55-.74-.55h-.18l-.74-.74-.37-.55-.37-.18-.55-.37-1.47-.37-.74-.18-.55-.55-1.47-1.29-.55-.74-.92-1.29-1.11-2.21-2.76.37-3.32-2.03-.55-.18-.55-.18-.37-.18h-.18l-.18-.18h-.18l-.37-.18-.55-.18-.55-.18-.55-.18-1.66-.18-2.03-.37-.55-.18-.74.37-1.11.92-.92,1.11-.37.37-.74,2.03-.55,1.29-2.95-.55-.37-.18-.74-.18.74.18.37.18,1.11-2.76,1.29-2.95.92.37,1.29,2.21.37.37.74-.74,2.21-1.84.92-.74,1.29-1.11,2.03-1.84.55-.18.74-.55,3.13-2.4,2.4-1.84,2.58-1.84.92-.74,2.95-2.21.55-.37,3.68-2.58.55-.37.92-.92,1.29-.92h.18l.37.55"/>
  <path class="cls-2" d="M643.43,363.77h0l.92.18h.18l.55.55.74.55,1.11,3.32.18,1.29.55,2.21,1.47,5.34v.18l.18.74v.18l.55,2.03.74,2.21v.55h.74l2.03-.55,4.97-1.29h.18l1.29-.37h.18l-.18-1.47-.37-2.95-.18-3.5.18-1.29v-1.84h.55l.18.18,1.29.74.18.18.55.55.37.55.55.92.37.55.18.37.18.18h.18l.18.18h.37l1.11,2.21h.55l.18.92-.18-.92h-.55l-1.11-2.21h-.37l-.18-.18h-.18l-.18-.18-.18-.37-.37-.55-.55-.92-.37-.55-.55-.55-.18-.18-1.29-.74-.18-.18h-.55v1.84l-.18,1.29.18,3.5.37,2.95.18,1.47h-.18l-1.29.37h-.18l-4.97,1.29-2.03.55h-.74v-.55l-.74-2.21-.55-2.03v-.18l-.18-.74v-.18l-1.47-5.34-.55-2.21-.18-1.29-1.11-3.32-.37-1.11-.18-.74v-.55l.18-.92v-.74h0v-.18l-.18-.18v-.18l-.37-.37-.37-.18-.18-.18-.37-.18h-.74l-.92.37-1.11.92h-.18l-.55.55-.37.18-.74.55-3.5,2.58-3.13,2.4-1.29.92.18.37.92-.74,2.95-2.21.55-.37,3.68-2.58.55-.37.92-.92,1.29-.92h.18l.37.55"/>
  <path class="cls-1" d="M643.06,360.82l1.29,2.03-.55.74-.37.18h0"/>
  <path class="cls-1" d="M293.17,380.99l1.29,2.03-.55.74-.37.18h0"/>
  <path class="cls-2" d="M293.54,383.94h0l.92.18h.18l.55.55.74.55-.37-1.11-.18-.74v-.55l.18-.92v-.74h0v-.18l-.18-.18v-.18l-.37-.37-.37-.18-.18-.18-.37-.18h-.74l-.92.37-1.11.92h-.18l-.55.55-.37.18-.74.55-3.5,2.58-3.13,2.4-1.29.92-2.21,1.66-2.21-3.68-1.29-2.03-1.66-2.95-.55-.92-1.11.74,1.11-.74-.55-.92-3.13-5.34-2.95-4.79,2.58-1.47,4.61-2.76.92-.55,3.5-2.21,2.4-1.29.37-.18-.92-1.66-.55-.92.74-.37,2.21-.92,2.95-1.29,5.53-2.4-.18-.37.18.37-5.53,2.4-2.95,1.29-2.21.92-.74.37.55.92.92,1.66,2.95,4.79v.37l2.58,4.05.37.74.55.74,2.4,4.24,1.11,2.03.18.18.18,1.11v1.47l-.37.55h-.18l-.55.55-.37.18-.74.55-3.5,2.58-3.13,2.4-1.29.92.18.37.92-.74,2.95-2.21.55-.37,3.68-2.58.55-.37.92-.92,1.29-.92h.18l.37.55"/>
  <path class="cls-2" d="M374.79,367.17l-.74.55-.55.55-.18.18-1.29,1.84-.74,1.11-.55.74-.18.18-.55.55-2.76,2.4.37,2.4.37.92.37,1.84-2.21.92-.55.18.55-.18,2.21-.92-.37-1.84-.37-.92,2.21-.55,1.84-.37,1.11-.37,1.66-.37,1.84-.37,2.21-.37h.55l-.55-2.21-.18-1.29-1.11-3.32-.37-1.11-.18-.74v-.55l.18-.92v-.74h0v-.18l-.18-.18v-.18l-.37-.37-.37-.18-.18-.18-.37-.18h-.74l-.92.37-1.11.92h-.18l-.55.55-.37.18-.74.55-3.5,2.58-3.13,2.4-1.29.92-2.21,1.66-2.4,1.84-3.13,2.21-1.29.92-.18.18-.18.18-1.66-2.95-.92-1.66-1.29-2.03-1.29-2.4-1.47-2.4-1.66-2.76,2.21-1.29.55-.37.74-.55,1.66-.74,1.47,2.76,2.58-1.47,2.4-1.47,1.47,2.4,1.47,2.4,1.29,2.4,1.84,3.13.18.37.92-.74,2.95-2.21.55-.37,3.68-2.58.55-.37.92-.92,1.29-.92h.18l.37.55"/>
  <path class="cls-1" d="M374.42,364.23l1.29,2.03-.55.74-.37.18h0"/>
  <path class="cls-1" d="M546.51,352.53l1.29,2.03-.55.74-.37.18h0"/>
  <path class="cls-2" d="M546.88,355.47h0l.92.18h.18l.55.55.74.55,1.11,3.32.18,1.29.55,2.21,1.47,5.34v.18l.18.74v.18l.55,2.03.74,2.21v.55l1.29,4.97.74,3.13.18.74.18,2.58.37,2.03.18,2.03.18,1.11h2.4l1.66-.18h2.21l1.66-.18h2.76l2.4-.18,1.47-.18.55-.37h.18l.37-.18.74-.55.37-.18.92-1.29.92-1.66,2.21-3.87,1.47-2.4.55.74.92-.18h1.29-1.29l-.92.18-.55-.74-1.47,2.4-2.21,3.87-.92,1.66-.92,1.29-.37.18-.74.55-.37.18h-.18l-.55.37-1.47.18-2.4.18h-2.76l-1.66.18h-2.21l-1.66.18h-2.4l-.18-1.11-.18-2.03-.37-2.03-.18-2.58-.18-.74-.74-3.13-1.29-4.97v-.55l-.74-2.21-.55-2.03v-.18l-.18-.74v-.18l-1.47-5.34-.55-2.21-.18-1.29-1.11-3.32-.37-1.11-.18-.74v-.55l.18-.92v-.74h0v-.18l-.18-.18v-.18l-.37-.37-.37-.18-.18-.18-.37-.18h-.74l-.92.37-1.11.92h-.18l-.55.55-.37.18-.74.55-3.5,2.58-3.13,2.4-1.29.92.18.37.92-.74,2.95-2.21.55-.37,3.68-2.58.55-.37.92-.92,1.29-.92h.18l.37.55"/>
  <path class="cls-2" d="M727.63,387.35h0l.92.18h.18l.55.55.74.55-.37-1.11-.18-.74v-.55l.18-.92v-.74h0v-.18l.18-.37-.18-.37v-.18l-.18-.37v-.37l.18-.37v-.18l.18-.18h0l.18-.18,1.29-1.11,1.11-.74,4.24-3.5.18-.55,2.4-1.84,2.03-1.47,2.03-1.66.74-.55,2.03-1.66,2.58-1.84.18-.37.37-.18.37-.18,5.16-4.42,2.21-3.87,1.29-1.11,5.71-4.97.74-.18-.74-.55-.37-.37.37.37.74.55-.74.18-5.71,4.97-1.29,1.11-2.21,3.87-5.16,4.42-.37.18-.37.18-.18.37-2.58,1.84-2.03,1.66-.74.55-2.03,1.66-2.03,1.47-2.4,1.84-.37.18-1.11.92-3.32,2.58-.74.74-1.66,1.29h0l-.18.18-.55.55-1.47.74-.92.37-1.11.92h-.18l-.55.55-.37.18-.74.55-3.5,2.58-3.13,2.4-1.29.92.18.37.92-.74,2.95-2.21.55-.37,3.68-2.58.55-.37.92-.92,1.29-.92h.18l.37.55"/>
  <path class="cls-1" d="M727.26,384.4l1.29,2.03-.55.74-.37.18h0"/>
  <path class="cls-1" d="M215.04,376.85l1.29,2.03-.55.74-.37.18h0"/>
  <path class="cls-2" d="M215.41,379.79h0l.92.18h.18l.55.55.74.55-.37-1.11-.18-.74v-.55l.18-.92v-.74h0v-.18l-.18-.18v-.18l-.37-.37-.37-.18-.18-.18-.37-.18h-.74l-.92.37-1.11.92h-.18l-.55.55-.37.18-.74.55-3.5,2.58-3.13,2.4-1.29.92-2.21,1.66-2.4,1.84-4.42,3.13-.18.18-.18.18-3.5,2.76-1.11.92-.74.37-.92.37-1.11-.18-1.11-.37h-.18l-3.32-5.53,2.76-1.84,1.29-.74,1.29-.74,1.29,2.03-1.29-2.03,2.76-1.66-1.29-2.4-1.47-2.4-1.66-2.76-1.47-2.4-1.47-2.4.92-.55.74-.37,2.21-1.29-1.47-2.58,1.29-.74,2.4-1.47-2.58-4.61-2.76-4.61,2.4-1.47,4.61-2.95.74-.37,2.21-1.47,1.47-.92,2.21-1.29.37-.18.74.92,3.13,5.16.37.74.55.92.92,1.66,2.95,4.79v.37l2.58,4.05.37.74.55.74,2.4,4.24,1.11,2.03.18.18.18,1.11v1.47l-.37.55h-.18l-.55.55-.37.18-.74.55-3.5,2.58-3.13,2.4-1.29.92.18.37.92-.74,2.95-2.21.55-.37,3.68-2.58.55-.37.92-.92,1.29-.92h.18l.37.55"/>
  <path class="cls-1" d="M470.42,358.24l1.29,2.03-.55.74-.37.18h0"/>
  <path class="cls-2" d="M470.78,361.19h0l.92.18h.18l.55.55.74.55,1.11,3.32.18,1.29.55,2.21.55-.18,1.47-.37,2.95-.55,3.5-.55v.18h.18v.18h.18l.18.18.18.18h.37l.18,1.84.18,1.66.18,1.84v.74l.55,4.24-4.97,1.29-2.03.55h-1.29l-1.47.55-3.68.92-.37.37-2.21.18h-.37l-2.58.37-.18.55-.55,3.13-1.47-.37-.74-.18-1.11.37-.37.18h-.37l-.37.37-.18.55-.18.55v.18-.18l.18-.55.18-.55.37-.37h.37l.37-.18,1.11-.37-.55-.55-1.47-1.29-.55-.74-.92-1.29-1.11-2.21-2.76.37-3.32-2.03-.55-.18-.55-.18-.37-.18h-.18l-.18-.18h-.18l-.37-.18-.55-.18-.55-.18-.55-.18-1.66-.18-2.03-.37-.55-.18-.74.37-.92.37-1.11-.18-1.11-.37h-.18l-3.32-5.53-2.95-4.79-1.11-1.84-1.11-1.66-1.11-1.66-2.95-4.79,2.76-1.66,1.66,2.4,1.47,2.4-1.11.55-1.84,1.11,1.11,1.66,1.11,1.66,1.11,1.84,2.95,4.79,3.32,5.53,1.29,2.21.37.37.74-.74,2.21-1.84.92-.74,1.29-1.11,2.03-1.84.55-.18.74-.55,3.13-2.4,2.4-1.84,2.58-1.84.92-.74,2.95-2.21.55-.37,3.68-2.58.55-.37.92-.92,1.29-.92h.18l.37.55"/>
  <path class="cls-1" d="M123.29,365.88l1.29,2.03-.55.74-.37.18h0"/>
  <path class="cls-2" d="M123.66,368.83h0l.92.18h.18l.55.55.74.55,1.11,3.32.18,1.29.55,2.21,1.47,5.34v.18l.18.74v.18l.55,2.03.74,2.21v.55h.74l1.29-.37-1.29.37h-1.29l-.74-.18-.55-.18-1.29-.37-.55-.18-1.84-.92h-.37l-.37-.18-.37-.37-.55-.18-.18-.92-1.47.37h-.37l-1.84.55-1.47.37-1.66.37-2.21.74-2.4.55-2.76.37-3.32-2.03-.55-.18v.55l.37.55v.55l-.18.37-.55.74-.37.37h0l-.74.55-.37.18-.37.37-.74.37-.55.37-.37.37-.37.55-.37.55-.18.37-.18.55h0l.18-.55.18-.37.37-.55.37-.55.37-.37.55-.37.74-.37.37-.37.37-.18.74-.55h0l.37-.37.55-.74.18-.37v-.55l-.37-.55v-.55l-.55-.18-.37-.18h-.18l-.18-.18h-.18l-.37-.18-.55-.18-.55-.18-.55-.18-1.66-.18-2.03-.37-.55-.18-.74.37-.92.37-1.11-.18-1.11-.37h-.18l-3.32-5.53-2.95-4.79-1.11-1.84-1.11-1.66-1.11-1.66-2.95-4.79-2.4-4.05-1.47-2.58,2.95-1.29,1.29-.55,4.97-2.03-1.47-2.4,1.47,2.4,2.03-.92,3.32-1.47,2.76-1.29,2.58,4.61,2.95,4.79,3.13,5.34.55.92.55.92,1.66,2.95,2.58-1.47,1.29,2.4,1.84,3.13.18.37.92-.74,2.95-2.21.55-.37,3.68-2.58.55-.37.92-.92,1.29-.92h.18l.37.55"/>
  <path class="cls-2" d="M190.25,84.12h0l.92.18h.18l.55.55.74.55,1.11,3.32.18,1.29.55,2.21,1.47,5.34v.18l.18.74v.18l.55,2.03.74,2.21v.55h.74l2.03-.55.37.55.18.92-.18-.92-.37-.55-2.03.55h-1.29l-1.47.55-3.68.92-.37.37.18.92.92,3.32.18.92.18,1.66-.18.18h0l-.18.18h-2.03l-.55.18-.55-.18-.92-.55-.37-.18-.37-.37h-.18l-.74-.74-.37-.55-.37-.18-.55-.37-1.47-.37-.74-.18-.55-.55-1.47-1.29-.55-.74-.92-1.29-1.11-2.21-2.76.37-1.84,2.21-.74,1.11-.74,1.84-.55,1.84-.18.55.18.37v.55l-.18.18-.18.55-.55.92-.37.37h-.55l-.18-.18v-.18l-.18-.37-.37-.37-.92-1.29-.74-1.11-.37-.74h0l-.37-.74v-.37l.18-.55.18-.37.37-.55.37-.55.37-.37.55-.37.74-.37.37-.37.37-.18.74-.55h0l.37-.37.55-.74.18-.37v-.55l-.37-.55v-.55l-.55-.18-.37-.18h-.18l-.18-.18h-.18l-.37-.18-.55-.18-.55-.18-.55-.18-1.66-.18-2.03-.37.92-.74,1.29-1.11,2.03-1.84.55-.18.74-.55,3.13-2.4,2.4-1.84,2.58-1.84.92-.74,2.95-2.21.55-.37,3.68-2.58.55-.37.92-.92,1.29-.92h.18l.37.55"/>
  <path class="cls-1" d="M189.88,81.17l1.29,2.03-.55.74-.37.18h0"/>
  <path class="cls-1" d="M189.88,81.17l1.29,2.03-.55.74-.37.18h0"/>
  <path class="cls-1" d="M119.05,78.86l1.29,2.03-.55.74-.37.18h0"/>
  <path class="cls-2" d="M119.42,81.81h0l.92.18h.18l.55.55.74.55-.37-1.11-.18-.74v-.55l.18-.92v-.74h0v-.18l-.18-.18v-.18l-.37-.37-.37-.18-.18-.18-.37-.18h-.74l-.92.37-1.11.92h-.18l-.55.55-.37.18-.74.55-3.5,2.58-3.13,2.4-1.29.92-2.21,1.66-2.4,1.84-4.42,3.13-.18.18-.18.18-3.5,2.76-1.11.92-.74.37-1.11.92-.92,1.11-.37.37-.74,2.03-.55,1.29-1.47,5.16-.18.37-1.29,3.32-2.76,5.16-2.58-1.29-3.5-1.84.18-3.13.18-1.84,1.47.55,4.05,2.03.55-.92,2.4,1.29.55.18.92-2.21.37-1.11.92-3.13,1.29-3.87.74-1.84.18-.18.74-.74,2.21-1.84.92-.74,1.29-1.11,2.03-1.84.55-.18.74-.55,3.13-2.4,2.4-1.84,2.58-1.84.92-.74,2.95-2.21.55-.37,3.68-2.58.55-.37.92-.92,1.29-.92h.18l.37.55"/>
  <path class="cls-1" d="M291.67,98.3l1.29,2.03-.55.74-.37.18h0"/>
  <path class="cls-2" d="M292.04,101.25h0l.92.18h.18l.55.55.74.55-.37-1.11-.18-.74v-.55l.18-.92v-.74h0v-.18l-.18-.18v-.18l-.37-.37-.37-.18-.18-.18-.37-.18h-.74l-.55-.18-.37-.37-.92-1.29-.18-.18-1.11-2.03-2.4-4.24-.55-.74-.37-.74-2.58-4.05v-.37l-2.95-4.79-.92-1.66-.55-.92-.92.37-2.03.92-4.79,2.03-5.16,2.03-2.58,1.11-2.76,1.29-3.32,1.47-2.03.92-2.4-3.87-.55.37-3.87,2.21-1.29.92-2.95,1.47,1.84,2.76,1.47,2.58,2.4,4.05,2.95,4.79,1.11,1.66,1.11,1.66,1.11,1.84,2.95,4.79,3.32,5.53,1.29,2.21.37.37.74-.74,2.21-1.84.92-.74,1.29-1.11,2.03-1.84.55-.18.74-.55,3.13-2.4,2.4-1.84,2.58-1.84.92-.74,2.95-2.21.55-.37,3.68-2.58.55-.37.92-.92,1.29-.92h.18l.37.55"/>
  <path class="cls-1" d="M761.9,116.36l1.29,2.03-.55.74-.37.18h0"/>
  <path class="cls-2" d="M762.27,119.3h0l.92.18h.18l.55.55.74.55-.37-1.11-.18-.74v-.55l.18-.92v-.74h0v-.18l-.18-.18v-.18l-.37-.37-.37-.18-.18-.18-.37-.18h-.74l-.55-.18-.37-.37-.92-1.29-.18-.18-1.11-2.03-2.4-4.24-.55-.74-.37-.74-2.58-4.05v-.37l-2.95-4.79-.92-1.66-.55-.92-.37-.74-3.13-5.16-.74-.92-.74-1.47-1.11-1.84-.55-1.11-.37-.74-1.29.18h-.74l-1.66-.18-2.03-.37-4.79-.74-1.66-.18-2.4-.37-2.76-.37-3.32-.55.55-.92,3.13-4.79,2.03-2.76.74.55.37.18h.37l.18-.18-.18.18h-.37l-.37-.18-.74-.55-2.03,2.76-3.13,4.79-.55.92.18.92.74,1.11,2.03,3.5,2.95,4.97,3.5,5.9,2.76,4.61,2.58,4.61,2.95,4.79,3.13,5.34.55.92.55.92,1.66,2.95,2.58-1.47,1.29,2.4,1.84,3.13.18.37.92-.74,2.95-2.21.55-.37,3.68-2.58.55-.37.92-.92,1.29-.92h.18l.37.55"/>
  <path class="cls-1" d="M675.22,98.49l1.29,2.03-.55.74-.37.18h0"/>
  <path class="cls-2" d="M675.59,101.43h0l.92.18h.18l.55.55.74.55-.37-1.11-.18-.74v-.55l.18-.92v-.74h0v-.18l-.18-.18v-.18l-.37-.37-.37-.18-.18-.18-.37-.18h-.74l-.92.37-1.11.92h-.18l-.55.55-.37.18-.74.55-3.5,2.58-3.13,2.4-1.29.92-2.21,1.66-2.4,1.84-4.42,3.13-.18.18-.18.18-3.5,2.76-1.11.92-.74.37-.92.37-1.11-.18-1.11-.37h-.18l-3.32-5.53,2.76-1.84,1.29-.74,1.29-.74,2.4,3.87.92-.74,1.66-1.11-.92-1.66-1.29-2.03-1.29-2.4-1.47-2.4-1.66-2.76-1.29-2.03-.18-.37-1.47-2.4-1.47-2.58-1.66-2.95-1.47-2.4,2.03-.92,3.32-1.47,2.76-1.29,2.58-1.11-1.47-2.58,2.03-1.11-2.03,1.11,1.47,2.58-2.58,1.11,2.58,4.61,2.95,4.79,3.13,5.34.55.92.55.92,1.66,2.95,2.58-1.47,1.29,2.4,1.84,3.13.18.37.92-.74,2.95-2.21.55-.37,3.68-2.58.55-.37.92-.92,1.29-.92h.18l.37.55"/>
  <path class="cls-1" d="M395.48,87.98l1.29,2.03-.55.74-.37.18h0"/>
  <path class="cls-2" d="M395.85,90.93h0l.92.18h.18l.55.55.74.55-.37-1.11-.18-.74v-.55l.18-.92v-.74h0v-.18l-.18-.18v-.18l-.37-.37-.37-.18-.18-.18-.37-.18h-.74l-.92.37-1.11.92h-.18l-.55.55-.37.18-.74.55-3.5,2.58-3.13,2.4-1.29.92-2.21,1.66-2.4,1.84-4.42,3.13-.18.18-.18.18-3.5,2.76-1.11.92-.74.37-.92.37-1.11-.18-1.11-.37h-.18l-3.32-5.53-2.95-4.79-1.11-1.84-1.11-1.66-1.11-1.66-2.95-4.79-2.76,1.66-3.32,1.84-3.13,2.03-1.11-1.11.18.74.18,1.11v2.58l-.18.55-.18.37-.55.18-4.97.18,4.97-.18.55-.18.18-.37.18-.55v-2.58l-.18-1.11-.18-.74,1.11,1.11,2.21,2.58,2.4,1.29,5.71,3.68,2.4-1.47,2.76-1.66,2.95,4.79,3.32,5.53,1.29,2.21.37.37.74-.74,2.21-1.84.92-.74,1.29-1.11,2.03-1.84.55-.18.74-.55,3.13-2.4,2.4-1.84,2.58-1.84.92-.74,2.95-2.21.55-.37,3.68-2.58.55-.37.92-.92,1.29-.92h.18l.37.55"/>
  <path class="cls-1" d="M492.84,96.92l1.29,2.03-.55.74-.37.18h0"/>
  <path class="cls-2" d="M493.21,99.87h0l.92.18h.18l.55.55.74.55-.37-1.11-.18-.74v-.55l.18-.92v-.74h0v-.18l-.18-.18v-.18l-.37-.37-.37-.18-.18-.18-.37-.18h-.74l-.92.37-1.11.92h-.18l-.55.55-.37.18-.74.55-3.5,2.58-3.13,2.4-1.29.92-2.21,1.66-2.4,1.84-4.42,3.13-.18.18-.18.18-3.5,2.76-1.11.92-.74.37-.92.37-1.11-.18-1.11-.37h-.18l-3.32-5.53-2.95-4.79-1.11-1.84-1.11-1.66-1.11-1.66-2.95-4.79-2.4-4.05-1.47-2.58-1.84-2.76-3.68-5.53,2.95-1.84,1.66-1.11.74,1.11-.74-1.11-1.66,1.11-2.95,1.84,3.68,5.53,1.84,2.76,1.47,2.58,2.4,4.05,2.95,4.79,1.11,1.66,1.11,1.66,1.11,1.84,2.95,4.79,3.32,5.53,1.29,2.21.37.37.74-.74,2.21-1.84.92-.74,1.29-1.11,2.03-1.84.55-.18.74-.55,3.13-2.4,2.4-1.84,2.58-1.84.92-.74,2.95-2.21.55-.37,3.68-2.58.55-.37.92-.92,1.29-.92h.18l.37.55"/>
  <path class="cls-1" d="M576.02,81.54l1.29,2.03-.55.74-.37.18h0"/>
  <path class="cls-2" d="M576.38,84.48h0l.92.18h.18l.55.55.74.55,1.11,3.32.18,1.29.55,2.21,1.47,5.34v.18l.18.74v.18l.55,2.03.74,2.21v.55h.74l2.03-.55,4.97-1.29h.18l1.29-.37h.18l-.18-1.47-.37-2.95-.18-3.5.18-1.29v-1.84h.55l.18.18,1.29.74.18.18.55.55.18.18-.18-.18-.55-.55-.18-.18-1.29-.74-.18-.18h-.55v1.84l-.18,1.29.18,3.5.37,2.95.18,1.47h-.18l-1.29.37h-.18l-4.97,1.29-2.03.55h-1.29l-1.47.55-3.68.92-.37.37.18.92.92,3.32.18.92.18,1.66-.18.18h0l-.18.18h0v.18l.18.18h0l.18.18h.18l.18-.18h0v-.18l.18-.18h-.18v-.18h-.18v-.18h-.18l-.18.18h0l-.18.18h-2.03l-.55.18-.55-.18-.92-.55-.74-.55h-.18l-.74-.74-.37-.55-.37-.18-.55-.37-1.47-.37-.74-.18-.55-.55-1.47-1.29-.55-.74-.92-1.29-1.11-2.21-2.76.37-3.32-2.03-.55-.18-.55-.18-.37-.18h-.18l-.18-.18h-.18l-.37-.18-.55-.18-.55-.18-.55-.18-1.66-.18-2.03-.37-.55-.18-.74.37-1.11.92-.92,1.11-.37.37-.74,2.03-.55,1.29-2.95-.55-.37-.18v-1.11l-.18-1.11-.18-.74v-.74l-1.47-1.11-2.21-1.29,2.21,1.29,1.47,1.11,1.84,1.11,1.29-2.95.92.37,1.29,2.21.37.37.74-.74,2.21-1.84.92-.74,1.29-1.11,2.03-1.84.55-.18.74-.55,3.13-2.4,2.4-1.84,2.58-1.84.92-.74,2.95-2.21.55-.37,3.68-2.58.55-.37.92-.92,1.29-.92h.18l.37.55"/>
  <path class="cls-1" d="M372.55,491.15l1.29,2.03-.55.74-.37.18h0"/>
  <path class="cls-2" d="M372.92,494.1h0l.92.18h.18l.55.55.74.55,1.11,3.32.18,1.29.55,2.21,1.47,5.34v.18l.18.74v.18l.55,2.03.74,2.21v.55l1.29,4.97.74,3.13.18.74.18,2.58.37,2.03.18,2.03.18,1.11h2.4l1.66-.18h2.21l1.66-.18.18,1.11v.74l.37,2.76.18.74.18,2.4.37,1.66.55-.18.55.18.37.18.37.37-.37-.37-.37-.18-.55-.18-.55.18-.37-1.66-.18-2.4-.18-.74-.37-2.76v-.74l-.18-1.11-1.66.18h-2.21l-1.66.18h-2.4l-.18-1.11-.18-2.03-.37-2.03-.18-2.58-.18-.74-.74-3.13-1.29-4.97v-.55l-.74-2.21-.55-2.03v-.18l-.18-.74v-.18l-1.47-5.34-.55-2.21-.18-1.29-1.11-3.32-.37-1.11-.18-.74v-.55l.18-.92v-.74h0v-.18l-.18-.18v-.18l-.37-.37-.37-.18-.18-.18-.37-.18h-.74l-.92.37-1.11.92h-.18l-.55.55-.37.18-.74.55-3.5,2.58-3.13,2.4-1.29.92.18.37.92-.74,2.95-2.21.55-.37,3.68-2.58.55-.37.92-.92,1.29-.92h.18l.37.55"/>
  <path class="cls-1" d="M184.51,499.44l1.29,2.03-.55.74-.37.18h0"/>
  <path class="cls-2" d="M184.88,502.39h0l.92.18h.18l.55.55.74.55,1.11,3.32.37-.18,1.29-.18,2.4-.74h.18l1.84-.18.74.18.18.18.92.74.92.55.74.37.18-.18h.55l-.18-.18v-.55l.18-1.11v-.37l-.18-1.29.18-.74v-.18l.18-.55.18-.55v-.18l.55-.55.37-.74.55-.55.55.55h.18l1.11.74.18.18,1.29.92.74.37,1.47.74-1.47-.74-.74-.37-1.29-.92-.18-.18-1.11-.74h-.18l-.55-.55-.55.55-.37.74-.55.55v.18l-.18.55-.18.55v.18l-.18.74.18,1.29v.37l-.18,1.11v.55l.18.18v2.03l.18,1.84.37,3.5v.74l.55,4.24h.18l1.29-.37h.18v1.29-1.29h-.18l-1.29.37h-.18l-4.97,1.29-2.03.55h-1.29l-1.47.55-3.68.92-.37.37.18.92.92,3.32.18.92.18,1.66-.18.18h0l-.18.18h0v.18l.18.18h0l.18.18h.18l.18-.18h0v-.18l.18-.18h4.05l1.66-.18h.55l-.18-.74-.74-3.13-1.29-4.97v-.55l-.74-2.21-.55-2.03v-.18l-.18-.74v-.18l-1.47-5.34-.55-2.21-.18-1.29-1.11-3.32-.37-1.11-.18-.74v-.55l.18-.92v-.74h0v-.18l-.18-.18v-.18l-.37-.37-.37-.18-.18-.18-.37-.18h-.74l-.92.37-1.11.92h-.18l-.55.55-.37.18-.74.55-3.5,2.58-3.13,2.4-1.29.92.18.37.92-.74,2.95-2.21.55-.37,3.68-2.58.55-.37.92-.92,1.29-.92h.18l.37.55"/>
  <path class="cls-1" d="M569.25,488.02l1.29,2.03-.55.74-.37.18h0"/>
  <path class="cls-2" d="M569.62,490.97h0l.92.18h.18l.55.55.74.55-.37-1.11-.18-.74v-.55l.18-.92v-.74h0v-.18l-.18-.18v-.18l-.37-.37-.37-.18-.18-.18-.37-.18h-.74l-.92.37-1.11.92h-.18l-.55.55-.37.18-.74.55-3.5,2.58-3.13,2.4-1.29.92-2.21,1.66-2.4,1.84-4.42,3.13-.18.18-.18.18-3.5,2.76-1.11.92-.74.37-1.11.92-.92,1.11-.37.37-.74,2.03-.55,1.29-1.47,5.16-.18.37-1.29,3.32.55.18.37,6.45v5.16l.18,3.68v6.45h3.5l.18-.18h0l-.18.18h-3.5v-6.45l-.18-3.68v-5.16l-.37-6.45.92-2.21.37-1.11.92-3.13,1.29-3.87.74-1.84.18-.18.74-.74,2.21-1.84.92-.74,1.29-1.11,2.03-1.84.55-.18.74-.55,3.13-2.4,2.4-1.84,2.58-1.84.92-.74,2.95-2.21.55-.37,3.68-2.58.55-.37.92-.92,1.29-.92h.18l.37.55"/>
  <path class="cls-1" d="M102.28,499.26l1.29,2.03-.55.74-.37.18h0"/>
  <path class="cls-2" d="M102.65,502.21h0l.92.18h.18l.55.55.74.55,1.11,3.32.18,1.29.55,2.21,1.47,5.34v.18l.18.74v.18l.55,2.03.74,2.21v.55h.74l2.03-.55,4.97-1.29h.18l1.29-.37h.18l-.18-1.47-.37-2.95-.18-3.5.18-1.29v-1.84h.55l.18.18,1.29.74.18.18.55.55.37.55.55.92.37.55.18.37.18.18h.18l.18.18h1.47-1.47l-.18-.18h-.18l-.18-.18-.18-.37-.37-.55-.55-.92-.37-.55-.55-.55-.18-.18-1.29-.74-.18-.18h-.55v1.84l-.18,1.29.18,3.5.37,2.95.18,1.47h-.18l-1.29.37h-.18l-4.97,1.29.37.55.37,1.66.55,1.29.55,1.29.74,1.11.55.74-.55-.74-1.11.74-.92.18-.18.92v1.66h-1.47l-1.66.18h-4.24v-.18h-.18v-.18h-.18l-.18.18h0l-.18.18h-2.03l-.55.18-.55-.18-.92-.55-.74-.55h-.18l-.74-.74-.37-.55-.37-.18-.55-.37-1.47-.37-.74-.18-1.11.37-.37.18h-.37l-.37.37-.18.55-.18.55-.18.37-.18.74v.37-.37l.18-.74.18-.37.18-.55.18-.55.37-.37h.37l.37-.18,1.11-.37-.55-.55-1.47-1.29-.55-.74-.92-1.29-1.11-2.21-2.76.37-3.32-2.03-.55-.18-.55-.18-.37-.18h-.18l-.18-.18h-.18l-.37-.18-.55-.18-.55-.18-.55-.18-1.66-.18-2.03-.37.92-.74,1.29-1.11,2.03-1.84.55-.18.74-.55,3.13-2.4,2.4-1.84,2.58-1.84.92-.74,2.95-2.21.55-.37,3.68-2.58.55-.37.92-.92,1.29-.92h.18l.37.55"/>
  <path class="cls-2" d="M631.95,527.45h0l.92.18h.18l.55.55.74.55-.37-1.11-.18-.74v-.55l.18-.92v-.74h0v-.18l-.18-.18v-.18l-.37-.37-.37-.18-.18-.18-.37-.18h-.74l-.55-.18-.37-.37-.92-1.29-.18-.18-1.11-2.03-2.4-4.24-.55-.74-.55.37-2.03,1.29-1.66-2.76-1.47-2.21v-.18l2.21-1.29.55-.37.55-.37,2.21-1.29,2.58-1.66.74,1.11,2.21-1.47,2.95-1.47-.74-1.47,1.47-.74,2.95-1.47.37-.18,2.95-.92,1.29-.55,2.76-1.11h.55l1.47,1.66.37.55,1.84,2.21.37.37,2.4,3.13,1.11,1.29.55.55,1.47,1.29,2.58,2.21-1.11.74-.74,1.66-2.03-1.29-.37-.18-1.11-.92-.18-.18-1.84-1.66-2.03,1.66-.74.55-2.03,1.66-2.03,1.47-2.4,1.84-.37.18-1.11.92-3.32,2.58-.74.74-1.66,1.29h0l-.18.18-.55.55-1.47.74-.92.37-1.11.92h-.18l-.55.55-.37.18-.74.55-3.5,2.58-3.13,2.4-1.29.92.18.37.92-.74,2.95-2.21.55-.37,3.68-2.58.55-.37.92-.92,1.29-.92h.18l.37.55"/>
  <path class="cls-1" d="M631.58,524.5l1.29,2.03-.55.74-.37.18h0"/>
  <path class="cls-2" d="M266.01,523.03h0l.92.18h.18l.55.55.74.55-.37-1.11-.18-.74v-.55l.18-.92v-.74h0v-.18l.18-.37-.18-.37v-.18l-.18-.37v-.37l.18-.37v-.18l.18-.18h0l.18-.18,1.29-1.11,1.11-.74,4.24-3.5.18-.55,2.4-1.84,2.03-1.47,2.03-1.66.74-.55,2.03-1.66,2.58-1.84.18-.37.55.55,4.05,3.5,2.21,1.29.92.74h.18l1.11.92h.18l1.47.74.37.37.18.37h.37l1.47.92,1.84,1.29.55.37.55.18.37.18.74.37.74.37.74.37,1.66.74.55.18.37.18,1.29.37.92.55.92.55.55.18.74.55.18-.92-.37-.37h-.18l-.18-.18-.74-.55-.74-.37-1.11-.37-.37-.18-.55-.55-2.4-1.11-1.11-.55-1.84-.92-2.4-1.29-.74-.37-.92-.55h-1.11l-1.47-.74-.18-.18-1.11-.74-.37-.18-.74-.55-2.03-1.66-.74-.55-3.13-2.76-.55-.55-.37.18-.37.18-.18.37-2.58,1.84-2.03,1.66-.74.55-2.03,1.66-2.03,1.47-2.4,1.84-.37.18-1.11.92-3.32,2.58-.74.74-1.66,1.29h0l-.18.18-.55.55-1.47.74-.92.37-1.11.92h-.18l-.55.55-.37.18-.74.55-3.5,2.58-3.13,2.4-1.29.92.18.37.92-.74,2.95-2.21.55-.37,3.68-2.58.55-.37.92-.92,1.29-.92h.18l.37.55"/>
  <path class="cls-1" d="M265.64,520.08l1.29,2.03-.55.74-.37.18h0"/>
  <path class="cls-2" d="M717.68,523.03h0l.92.18h.18l.55.55.74.55-.37-1.11-.18-.74v-.55l.18-.92v-.74h0v-.18l.18-.37-.18-.37v-.18l-.18-.37v-.37l.18-.37v-.18l.18-.18h0l.18-.18,1.29-1.11,1.11-.74,4.24-3.5.18-.55,2.4-1.84,2.03-1.47,2.03-1.66.74-.55,2.03-1.66,2.58-1.84.18-.37.55.55,4.05,3.5,2.21,1.29.92.74h.18l1.11.92h.18l1.47.74.37.37.18.37h.37l1.47.92,1.84,1.29.55.37.55.18.37.18.74.37.74.37.74.37,1.66.74.55.18.37.18,1.29.37.92.55.92.55.55.18.74.55-.18.74-.55,1.11-.18.55-2.03,5.9-.18.18.18-.18,2.03-5.9.18-.55.55-1.11.18-.74.18-.92-.37-.37h-.18l-.18-.18-.74-.55-.74-.37-1.11-.37-.37-.18-.55-.37-1.29-.37-1.29-.74-.55-.18-.55-.37-.92-.37-.74-.37-.92-.37-1.66-.92h-.55l-1.66-1.11-.37-.18-1.47-.74-.18-.18-1.11-.74-.37-.18-.74-.55-2.03-1.66-.74-.55-3.13-2.76-.55-.55-.37.18-.37.18-.18.37-2.58,1.84-2.03,1.66-.74.55-2.03,1.66-2.03,1.47-2.4,1.84-.37.18-1.11.92-3.32,2.58-.74.74-1.66,1.29h0l-.18.18-.55.55-1.47.74-.92.37-1.11.92h-.18l-.55.55-.37.18-.74.55-3.5,2.58-3.13,2.4-1.29.92.18.37.92-.74,2.95-2.21.55-.37,3.68-2.58.55-.37.92-.92,1.29-.92h.18l.37.55"/>
  <path class="cls-1" d="M717.31,520.08l1.29,2.03-.55.74-.37.18h0"/>
  <path class="cls-1" d="M478.55,496.87l1.29,2.03-.55.74-.37.18h0"/>
  <path class="cls-2" d="M478.92,499.81h0l.92.18h.18l.55.55.74.55,1.11,3.32.18,1.29.55,2.21,1.47,5.34v.18l.18.74v.18l.55,2.03.74,2.21v.55l1.29,4.97.74,3.13.18.74h-.55l-1.66.18h-4.24v-.18h-.18v-.18h-.18l-.18.18h0l-.18.18h-2.03l-.55.18-.55-.18-.92-.55-.74-.55h-.18l-.74-.74-.37-.55-.37-.18-.55-.37-1.47-.37-.74-.18-.55-.55-1.47-1.29-.55-.74-.92-1.29-1.11-2.21-2.76.37-3.32-2.03-.55-.18-.55-.18-.37-.18h-.18l-.18-.18h-.18l-.37-.18-.55-.18-.55-.18-.55-.18-1.66-.18-2.03-.37-.55-.18-.74.37-1.11.92-.92,1.11-.37.37-.74,2.03-.55,1.29-1.47,5.16-.18.37-1.29,3.32.55.18.92-2.21.37-.55.37-.18.55-.18h.37l.37-.18.18-.18h.18l.18-.18,1.29-.55.18-.18.18.18.37.18.74.74,1.47,1.29,1.11.92.92.74,3.13,2.03,1.11.55,1.29.74.74.37-.74-.37-1.29-.74-1.11-.55-3.13-2.03-.92-.74-1.11-.92-1.47-1.29-.74-.74-.37-.18-.18-.18-.18.18-1.29.55-.18.18-.55-.18-.37-.37v-1.11l-.18-1.29,1.29-3.87.74-1.84.18-.18-.37-.37-.37.37-.74,2.03-.55,1.29-2.95-.55-.37-.18-2.95-.74.37-1.66.74-2.4,1.47,1.11,1.84,1.11,1.29-2.95.92.37,1.29,2.21.37.37.74-.74,2.21-1.84.92-.74,1.29-1.11,2.03-1.84.55-.18.74-.55,3.13-2.4,2.4-1.84,2.58-1.84.92-.74,2.95-2.21.55-.37,3.68-2.58.55-.37.92-.92,1.29-.92h.18l.37.55"/>
  <path class="cls-1" d="M88.84,426.08l1.29,2.03-.55.74-.37.18h0"/>
  <path class="cls-2" d="M89.2,429.03h0l.92.18h.18l.55.55.74.55,1.11,3.32.37-.18,1.29-.18,2.4-.74h.18l1.84-.18.74.18.18.18.92.74.92.55.74.37.18-.18h.55l-.18-.18v-.55l.18-1.11v-.37l-.18-1.29.18-.74v-.18l.18-.55.18-.55v-.18l.55-.55.37-.74.55-.55.55.55h.18l1.11.74.18.18,1.29.92-1.29-.92-.18-.18-1.11-.74h-.18l-.55-.55-.55.55-.37.74-.55.55v.18l-.18.55-.18.55v.18l-.18.74.18,1.29v.37l-.18,1.11v.55l.18.18v2.03l.18,1.84.37,3.5v.74l.55,4.24h.18l1.29-.37h.18l-.18-1.47-.18-.55.18.55.18,1.47h-.18l-1.29.37h-.18l-4.97,1.29-2.03.55h-.74l1.29,4.97.74,3.13.18.74h-.55l-1.66.18h-1.47,1.47l1.66-.18h.55l-.18-.74-.74-3.13-1.29-4.97v-.55l-.74-2.21-.55-2.03v-.18l-.18-.74v-.18l-1.47-5.34-.55-2.21-.18-1.29-1.11-3.32-.37-1.11-.18-.74v-.55l.18-.92v-.74h0v-.18l-.18-.18v-.18l-.37-.37-.37-.18-.18-.18-.37-.18h-.74l-.92.37-1.11.92h-.18l-.55.55-.37.18-.74.55-3.5,2.58-3.13,2.4-1.29.92.18.37.92-.74,2.95-2.21.55-.37,3.68-2.58.55-.37.92-.92,1.29-.92h.18l.37.55"/>
  <path class="cls-2" d="M742.74,460.25h0l.92.18h.18l.55.55.74.55-.37-1.11-.18-.74v-.55l.18-.92v-.74h0v-.18l.18-.37-.18-.37v-.18l-.18-.37v-.37l.18-.37v-.18l.18-.18h0l.18-.18,1.29-1.11,1.11-.74,4.24-3.5.18-.55,2.4-1.84,2.03-1.47,2.03-1.66.74-.55,2.03-1.66,2.58-1.84.18-.37.37-.18.37-.18-1.11-1.11-2.76-3.32-4.24-4.97-4.24-5.16-1.11-1.47,2.58-3.5.18-.37,2.95-1.29,1.66-.55v.18l1.66,3.13-4.79,2.4-3.13,1.47h-.18l-.37.18,3.13,3.87,1.47,1.66,1.47,1.66.37.55,1.84,2.21.37.37,2.4,3.13,1.11,1.29-.18.37-2.58,1.84-2.03,1.66-.74.55-2.03,1.66-2.03,1.47-2.4,1.84-.37.18-1.11.92-3.32,2.58-.74.74-1.66,1.29h0l-.18.18-.55.55-1.47.74-.92.37-1.11.92h-.18l-.55.55-.37.18-.74.55-3.5,2.58-3.13,2.4-1.29.92.18.37.92-.74,2.95-2.21.55-.37,3.68-2.58.55-.37.92-.92,1.29-.92h.18l.37.55"/>
  <path class="cls-1" d="M742.37,457.31l1.29,2.03-.55.74-.37.18h0"/>
  <path class="cls-2" d="M556.65,455.19h0l.92.18h.18l.55.55.74.55-.37-1.11-.18-.74v-.55l.18-.92v-.74h0v-.18l-.18-.18v-.18l-.37-.37-.37-.18-.18-.18-.37-.18h-.74l-.55-.18-.37-.37-.92-1.29-.18-.18-1.11-2.03-2.4-4.24-.55-.74-.37-.74-2.58-4.05v-.37l-.92-1.29-2.03-3.5-.92-1.66-.55-.92.74-.37,2.21-.92,2.95-1.29,5.53-2.4h.18l3.13-1.29.74-.37.92-.37,2.76,4.24.55,1.11.74,1.29-.74-1.29,2.95-.92,1.29-.55,2.76-1.11h.55l1.47,1.66.37.55,1.84,2.21.37.37,2.4,3.13,1.11,1.29.55.55,4.05,3.5.55.37,1.66.92.92.74-.74.74-1.47,1.29-2.76-1.66-2.03-1.29-.37-.18-1.11-.92-.18-.18-1.84-1.66-2.03,1.66-.74.55-2.03,1.66-2.03,1.47-2.4,1.84-.37.18-1.11.92-3.32,2.58-.74.74-1.66,1.29h0l-.18.18-.55.55-1.47.74-.92.37-1.11.92h-.18l-.55.55-.37.18-.74.55-3.5,2.58-3.13,2.4-1.29.92.18.37.92-.74,2.95-2.21.55-.37,3.68-2.58.55-.37.92-.92,1.29-.92h.18l.37.55"/>
  <path class="cls-1" d="M556.28,452.24l1.29,2.03-.55.74-.37.18h0"/>
  <path class="cls-2" d="M464.89,455.92h0l.92.18h.18l.55.55.74.55-.37-1.11-.18-.74v-.55l.18-.92v-.74h0v-.18l-.18-.18v-.18l-.37-.37-.37-.18-.18-.18-.37-.18h-.74l-.55-.18-.37-.37-.92-1.29-.18-.18-1.11-2.03-2.4-4.24-.55-.74-.37-.74-2.58-4.05v-.37l.55-.37,2.21-1.29-1.66-2.58-1.29-2.4-1.29-2.03,2.95-1.29,5.53-2.4h.18l3.13-1.29.74-.37.92-.37,2.21-1.11,1.11-.37,4.24,5.34,1.47,1.84-1.47.74-.18-.18.18.18,1.47-.74,1.47-.55,1.84-.74.37.55,1.84,2.21.37.37,2.4,3.13,1.11,1.29.55.55,4.05,3.5,2.21,1.29.92.74h.18l.92.55.18.37h.18l-2.4,2.21v-.18l-1.11-.92h-.18l-2.76-1.66-2.03-1.29-.37-.18-1.11-.92-.18-.18-1.84-1.66-2.03,1.66-.74.55-2.03,1.66-2.03,1.47-2.4,1.84-.37.18-1.11.92-3.32,2.58-.74.74-1.66,1.29h0l-.18.18-.55.55-1.47.74-.92.37-1.11.92h-.18l-.55.55-.37.18-.74.55-3.5,2.58-3.13,2.4-1.29.92.18.37.92-.74,2.95-2.21.55-.37,3.68-2.58.55-.37.92-.92,1.29-.92h.18l.37.55"/>
  <path class="cls-1" d="M464.52,452.98l1.29,2.03-.55.74-.37.18h0"/>
  <path class="cls-2" d="M269.95,456.66h0l.92.18h.18l.55.55.74.55-.37-1.11-.18-.74v-.55l.18-.92v-.74h0v-.18l.18-.37-.18-.37v-.18l-.18-.37v-.37l.18-.37v-.18l.18-.18h0l.18-.18,1.29-1.11,1.11-.74,4.24-3.5.18-.55,2.4-1.84,2.03-1.47,2.03-1.66.74-.55,2.03-1.66,2.58-1.84.18-.37.37-.18.37-.18,5.16-4.42,2.21-3.87,1.29-1.11,5.71-4.97.74-.18.55.55,1.29.74.74.55,1.66.92.37.18.92.74.18.18,5.16,3.5-2.03,2.76.18,1.47.18,1.47-2.03.55h0l-.55.74-.74,1.11v.18l-.18.55-.18,3.5-.18.55-1.29-.74-2.76-1.47-1.66,2.58-1.66,2.76h0l-1.66-.92h-1.11l-1.47-.74-.18-.18-1.11-.74-.37-.18-.74-.55-2.03-1.66-.74-.55-3.13-2.76-.55-.55-.37.18-.37.18-.18.37-2.58,1.84-2.03,1.66-.74.55-2.03,1.66-2.03,1.47-2.4,1.84-.37.18-1.11.92-3.32,2.58-.74.74-1.66,1.29h0l-.18.18-.55.55-1.47.74-.92.37-1.11.92h-.18l-.55.55-.37.18-.74.55-3.5,2.58-3.13,2.4-1.29.92.18.37.92-.74,2.95-2.21.55-.37,3.68-2.58.55-.37.92-.92,1.29-.92h.18l.37.55"/>
  <path class="cls-1" d="M269.58,453.71l1.29,2.03-.55.74-.37.18h0"/>
  <path class="cls-1" d="M402.43,448.92l1.29,2.03-.55.74-.37.18h0"/>
  <path class="cls-2" d="M402.79,451.87h0l.92.18h.18l.55.55.74.55-.37-1.11-.18-.74v-.55l.18-.92v-.74h0v-.18l-.18-.18v-.18l-.37-.37-.37-.18-.18-.18-.37-.18h-.74l-.92.37-1.11.92h-.18l-.55.55-.37.18-.74.55-3.5,2.58-3.13,2.4-1.29.92-2.21,1.66-2.4,1.84-4.42,3.13-.18.18-.18.18-1.66-2.95-.92-1.66-1.29-2.03-1.29-2.4-3.13,1.84,3.13-1.84-1.47-2.4-1.66-2.76-1.47-2.4-1.47-2.4-1.47-2.58-1.66-2.95-1.47-2.4,2.03-.92,3.32-1.47,1.47,2.4-1.66.74-3.68,1.66-1.47-2.4,2.03-.92,3.32-1.47,2.76-1.29,2.58-1.11,5.16-2.03,4.79-2.03-2.4-3.87-1.47-2.76-.92-1.66.92,1.66,2.21-1.29.37-.18.74.92,3.13,5.16.37.74.55.92.92,1.66,2.95,4.79v.37l2.58,4.05.37.74.55.74,2.4,4.24,1.11,2.03.18.18.18,1.11v1.47l-.37.55h-.18l-.55.55-.37.18-.74.55-3.5,2.58-3.13,2.4-1.29.92.18.37.92-.74,2.95-2.21.55-.37,3.68-2.58.55-.37.92-.92,1.29-.92h.18l.37.55"/>
  <path class="cls-1" d="M200.49,430.87l1.29,2.03-.55.74-.37.18h0"/>
  <path class="cls-2" d="M200.86,433.82h0l.92.18h.18l.55.55.74.55,1.11,3.32.18,1.29.55,2.21,1.47,5.34v.18l.18.74.55-.18.74-.18,1.11,1.29,1.11,1.66-1.11-1.66-1.11-1.29-.74.18-.55.18h-.37l-1.66.37-4.05,1.11-1.47.37h-.37l-1.84.55-1.47.37-1.66.37-2.21.74-2.4.55-2.76.37-1.84,2.21-.74,1.11-.74,1.84-.55,1.84-.18.55h-.74l-.37-.18.37.18h.74l.18-.55.55-1.84.74-1.84.74-1.11,1.84-2.21-3.32-2.03-.55-.18-.55-.18-.37-.18h-.18l-.18-.18h-.18l-.37-.18-.55-.18-.55-.18-.55-.18-1.66-.18-2.03-.37-.55-.18-.74.37-.92.37-1.11-.18-1.11-.37h-.18l-3.32-5.53-2.95-4.79-1.11-1.84-1.11-1.66-1.11-1.66-2.95-4.79,2.76-1.66,1.11-.74.74-.37,1.47-.92-2.03-3.32-.92.55-.55.18-2.21.92-2.76,1.29,2.4,4.05,2.95,4.79,1.11,1.66,1.11,1.66,1.11,1.84,2.95,4.79,3.32,5.53,1.29,2.21.37.37.74-.74,2.21-1.84.92-.74,1.29-1.11,2.03-1.84.55-.18.74-.55,3.13-2.4,2.4-1.84,2.58-1.84.92-.74,2.95-2.21.55-.37,3.68-2.58.55-.37.92-.92,1.29-.92h.18l.37.55"/>
  <path class="cls-2" d="M645.27,456.57h0l.92.18h.18l.55.55.74.55-.37-1.11-.18-.74v-.55l.18-.92v-.74h0v-.18l.18-.37-.18-.37v-.18l-.18-.37v-.37l.18-.37v-.18l.18-.18h0l.18-.18,1.29-1.11,1.11-.74,4.24-3.5.18-.55-1.84-3.13-.92-1.47-.92-1.47-1.11-2.03-2.4-4.05-.74-1.47-.74-1.11-1.29-2.4-.18-.18-.37-.74-.74-1.29,3.13-1.29.74-.37.92-.37,2.21-1.11,1.11-.37,2.95-1.29,3.13,3.87,1.47,1.66,1.47,1.66.37.55,1.84,2.21.37.37,2.4,3.13,1.11,1.29.37-.18.37-.18,2.03-1.66-2.03,1.66-.37.18-.37.18.55.55,4.05,3.5,2.21,1.29.92.74h.18l1.11.92h.18l1.47.74.37.37.18.37h.37v.37l1.11.55.37.18.74.74,1.11.55.55.18.92.55.18.18h0v.92l-.55,1.11-.37.92-.18,1.11-.55.55-.18.18.18-.18.55-.55.18-1.11-3.87-2.4-.55-.37-.92-.74-.92-.55-.37-.37-1.29-.55-.92-.55v-.18l-1.11-.92h-.18l-2.76-1.66-2.03-1.29-.37-.18-1.11-.92-.18-.18-1.84-1.66-2.03,1.66-.74.55-2.03,1.66-2.03,1.47-2.4,1.84-.37.18-1.11.92-3.32,2.58-.74.74-1.66,1.29h0l-.18.18-.55.55-1.47.74-.92.37-1.11.92h-.18l-.55.55-.37.18-.74.55-3.5,2.58-3.13,2.4-1.29.92.18.37.92-.74,2.95-2.21.55-.37,3.68-2.58.55-.37.92-.92,1.29-.92h.18l.37.55"/>
  <path class="cls-1" d="M644.9,453.62l1.29,2.03-.55.74-.37.18h0"/>
  <path class="cls-2" d="M558.59,585.06h0l.92.18h.18l.55.55.74.55,1.11,3.32.18,1.29.55,2.21,1.47,5.34v.18l.18.74v.18l.55,2.03.74,2.21v.55h.74l2.03-.55,4.97-1.29h.18l1.29-.37h.18l-.18-1.47-.37-2.95-.18-3.5.18-1.29v-1.84h.55l.18.18,1.29.74.18.18.55.55.37.55.55.92.37.55.18.37.18.18h.18l-.18,1.66.18-1.66h-.18l-.18-.18-.18-.37-.37-.55-.55-.92-.37-.55-.55-.55-.18-.18-1.29-.74-.18-.18h-.55v1.84l-.18,1.29.18,3.5.37,2.95.18,1.47h-.18l-1.29.37h-.18l-4.97,1.29-2.03.55h-.74v-.55l-.74-2.21-.55-2.03v-.18l-.18-.74v-.18l-1.47-5.34-.55-2.21-.18-1.29-1.11-3.32-.37-1.11-.18-.74v-.55l.18-.92v-.74h0v-.18l-.18-.18v-.18l-.37-.37-.37-.18-.18-.18-.37-.18h-.74l-.92.37-1.11.92h-.18l-.55.55-.37.18-.74.55-3.5,2.58-3.13,2.4-1.29.92.18.37.92-.74,2.95-2.21.55-.37,3.68-2.58.55-.37.92-.92,1.29-.92h.18l.37.55"/>
  <path class="cls-1" d="M558.22,582.12l1.29,2.03-.55.74-.37.18h0"/>
  <path class="cls-1" d="M471.31,565.9l1.29,2.03-.55.74-.37.18h0"/>
  <path class="cls-2" d="M471.68,568.85h0l.92.18h.18l.55.55.74.55,1.11,3.32.18,1.29.55,2.21,1.47,5.34v.18l.18.74v.18l.55,2.03.74,2.21v.55l1.29,4.97.74,3.13.18.74.18,2.58.37,2.03.18,2.03.18,1.11h2.4l1.66-.18h2.21l1.66-.18.18,1.11v.74l.37,2.76.18.74.18,2.4.37,1.66.55-.18.55.18.37.18.74.55.37.18,1.29-.37.74,1.11.37,1.66.18,1.29-.37,1.29-.74.92.74-.92.37-1.29-.18-1.29-.37-1.66-.74-1.11-1.29.37-.37-.18-.74-.55-.37-.18-.55-.18-.55.18-.37-1.66-.18-2.4-.18-.74-.37-2.76v-.74l-.18-1.11-1.66.18h-2.21l-1.66.18h-2.4l-.18-1.11-.18-2.03-.37-2.03-.18-2.58-.18-.74-.74-3.13-1.29-4.97v-.55l-.74-2.21-.55-2.03v-.18l-.18-.74v-.18l-1.47-5.34-.55-2.21-.18-1.29-1.11-3.32-.37-1.11-.18-.74v-.55l.18-.92v-.74h0v-.18l-.18-.18v-.18l-.37-.37-.37-.18-.18-.18-.37-.18h-.74l-.92.37-1.11.92h-.18l-.55.55-.37.18-.74.55-3.5,2.58-3.13,2.4-1.29.92.18.37.92-.74,2.95-2.21.55-.37,3.68-2.58.55-.37.92-.92,1.29-.92h.18l.37.55"/>
  <path class="cls-2" d="M303.56,590.68l-.74.55-.55.55-.18.18-1.29,1.84-.74,1.11-.55.74-.18.18-.55.55-2.76,2.4-1.84,1.29-4.97,3.68-.55.18.55,1.11-.55-1.11-.55.18-1.47.74-.37.37v.18l-.18.18v.92l-.18,1.11v.18l-.55-.18-.55-.18-.37-.18h-.18l-.18-.18h-.18l-.37-.18-.55-.18-.55-.18-.55-.18-1.66-.18-2.03-.37.92-.74,1.29-1.11,2.03-1.84.55-.18.74-.55,3.13-2.4,2.4-1.84,2.58-1.84-.18-.37-2.21,1.66-2.4,1.84-4.42,3.13-.18.18-.18.18-1.66-2.95-.92-1.66-1.11-1.84-.18-.18-1.29-2.4-1.47-2.4-1.66-2.76-1.47-2.4-1.47-2.4-1.47-2.58,1.11-.55,2.76-1.66,1.29-.74.92,1.47.55.92,1.29,2.58,1.66,2.4,1.47,2.76,2.58-1.47,2.4-1.47,1.47,2.4,1.47,2.4,1.29,2.4,1.84,3.13.18.37.92-.74,2.95-2.21.55-.37,3.68-2.58.55-.37.92-.92,1.29-.92h.18l.37.55"/>
  <path class="cls-1" d="M303.19,587.73l1.29,2.03-.55.74-.37.18h0"/>
  <path class="cls-2" d="M96.94,602.11h0l.92.18h.18l.55.55.74.55-.37-1.11-.18-.74v-.55l.18-.92v-.74h0v-.18l-.18-.18v-.18l-.37-.37-.37-.18-.18-.18-.37-.18h-.74l-.55-.18-.37-.37-.92-1.29-.18-.18-1.11-2.03-2.4-4.24-.55-.74-.55.37-2.03,1.29-4.61,2.76-4.61,2.76-1.66-2.76,4.61-2.76,2.76-1.66,1.84-1.11-1.47-2.4,2.21-1.29.55-.37.55-.37,2.21-1.29,2.58-1.66.74,1.11,2.21-1.47,1.29-.74,1.66-.74,2.4,4.05,1.11,2.03.92,1.47.92,1.47,1.84,3.13,2.4-1.84,2.03-1.47,2.03-1.66.74-.55,2.03-1.66,1.47-1.11-1.47,1.11-2.03,1.66-.74.55-2.03,1.66-2.03,1.47-2.4,1.84-.37.18-1.11.92-3.32,2.58-.74.74-1.66,1.29h0l-.18.18-.55.55-1.47.74-.92.37-1.11.92h-.18l-.55.55-.37.18-.74.55-3.5,2.58-3.13,2.4-1.29.92.18.37.92-.74,2.95-2.21.55-.37,3.68-2.58.55-.37.92-.92,1.29-.92h.18l.37.55"/>
  <path class="cls-1" d="M96.57,599.16l1.29,2.03-.55.74-.37.18h0"/>
  <path class="cls-2" d="M744.03,588.93h0l.92.18h.18l.55.55.74.55-.37-1.11-.18-.74v-.55l.18-.92v-.74h0v-.18l.18-.37-.18-.37v-.18l-.18-.37v-.37l.18-.37v-.18l.18-.18h0l.18-.18,1.29-1.11,1.11-.74,4.24-3.5.18-.55.74-.55-.74.55.92,1.84,1.29,1.47,2.76,3.87,1.47,1.84.55.55h.18l1.11.74.18.18,1.84-2.21-1.84,2.21-.18-.18-1.11-.74h-.18l-.55-.55-.55.55-.37.74-.55.55v.18l-.18.55-.18.55v.18l-.18.74.18,1.29v.37l-.18,1.11v.55l.18.18v2.03l.18,1.84.37,3.5v.74l.55,4.24h.18l1.29-.37h.18l-.18-1.47-.37-2.95-.18-3.5.18-1.29v-1.84h.55l.18.18,1.29.74.18.18.55.55.37.55.55.92.37.55.18.37.18.18h.18l-.18,1.66.18-1.66h-.18l-.18-.18-.18-.37-.37-.55-.55-.92-.37-.55-.55-.55-.18-.18-1.29-.74-.18-.18h-.55v1.84l-.18,1.29.18,3.5.37,2.95.18,1.47h-.18l-1.29.37h-.18l-4.97,1.29-2.03.55h-.74v-.55l-.74-2.21-.55-2.03v-.18l-.18-.74v-.18l-1.47-5.34-.55-2.21-.18-1.29-1.11-3.32-.37-1.11-.18-.74v-.55l.18-.92v-.74h0v-.18l-.18-.18v-.18l-.37-.37-.37-.18-.18-.18-.37-.18h-.74l-.92.37-1.11.92h-.18l-.55.55-.37.18-.74.55-3.5,2.58-3.13,2.4-1.29.92.18.37.92-.74,2.95-2.21.55-.37,3.68-2.58.55-.37.92-.92,1.29-.92h.18l.37.55"/>
  <path class="cls-1" d="M743.66,585.98l1.29,2.03-.55.74-.37.18h0"/>
  <path class="cls-1" d="M396.93,580l1.29,2.03-.55.74-.37.18h0"/>
  <path class="cls-2" d="M397.29,582.94h0l.92.18h.18l.55.55.74.55,1.11,3.32.18,1.29.55,2.21,1.47,5.34v.18l.18.74.55-.18.74-.18,2.21-.37,2.76-.74-2.76.74-2.21.37-.74.18-.55.18h-.37l-1.66.37-4.05,1.11-1.47.37h-.37l-1.84.55-1.47.37-1.66.37-2.21.74-2.4.55-2.76.37-1.84,2.21-.74,1.11-.74,1.84-.55,1.84h.74l1.29-4.05.92.18.55.18.55.92.37.55-.18,1.29.18-1.29-.37-.55-.55-.92-.55-.18-.92-.18-1.29,4.05h-.74l.55-1.84.74-1.84.74-1.11,1.84-2.21-3.32-2.03-.55-.18-.55-.18-.37-.18h-.18l-.18-.18h-.18l-.37-.18-.55-.18-.55-.18-.55-.18-1.66-.18-2.03-.37-.55-.18-.74.37-.92.37-1.11-.18-1.11-.37h-.18l-3.32-5.53-2.95-4.79-1.11-1.84-1.11-1.66-1.11-1.66-2.95-4.79,2.76-1.66.74,1.11.92,1.29,1.47,2.4-2.95,1.66,1.11,1.66,1.11,1.66,1.11,1.84,2.95,4.79,3.32,5.53,1.29,2.21.37.37.74-.74,2.21-1.84.92-.74,1.29-1.11,2.03-1.84.55-.18.74-.55,3.13-2.4,2.4-1.84,2.58-1.84.92-.74,2.95-2.21.55-.37,3.68-2.58.55-.37.92-.92,1.29-.92h.18l.37.55"/>
  <path class="cls-1" d="M209.46,576.4l1.29,2.03-.55.74-.37.18h0"/>
  <path class="cls-2" d="M209.83,579.35h0l.92.18h.18l.55.55.74.55,1.11,3.32.18,1.29.55,2.21,1.47,5.34v.18l.18.74v.18l.55,2.03.74,2.21v.55l1.29,4.97.74,3.13.18.74h-.55l-1.66.18h-4.24v-.18h-.18v-.18h-.18l-.18.18h0l-.18.18h-2.03l-.55.18-.55-.18h0l-.92-.55-.74-.55h-.18l-.74-.74-.37-.55-.37-.18-.55-.37-1.47-.37-.74-.18-.55-.55-1.47-1.29-.55-.74-.92-1.29-1.11-2.21-2.76.37-3.32-2.03-.55-.18-.55-.18-.37-.18h-.18l-.18-.18h-.18l-.37-.18-.55-.18-.55-.18-.55-.18-1.66-.18-2.03-.37-.55-.18-.74.37-1.11.92-.92,1.11-.37.37-.74,2.03-.55,1.29-1.47,5.16-.18.37-1.29,3.32.55.18.92-2.21.37-.55.37-.18.55-.18h.37l.37-.18.18-.18h.18l.18-.18,1.29-.55.18-.18.18.18.37.18.74.74,1.47,1.29.55.37-.55-.37-1.47-1.29-.74-.74-.37-.18-.18-.18-.18.18-1.29.55-.18.18-.55-.18-.37-.37v-1.11l-.18-1.29,1.29-3.87.74-1.84.18-.18-.37-.37-1.29-2.21-3.32-5.53-2.95-4.79-2.76,1.66-2.4,1.47-1.29.74,1.29-.74,2.4-1.47,2.76-1.66,2.95,4.79,3.32,5.53,1.29,2.21.37.37.74-.74,2.21-1.84.92-.74,1.29-1.11,2.03-1.84.55-.18.74-.55,3.13-2.4,2.4-1.84,2.58-1.84.92-.74,2.95-2.21.55-.37,3.68-2.58.55-.37.92-.92,1.29-.92h.18l.37.55"/>
  <path class="cls-1" d="M662.46,576.77l1.29,2.03-.55.74-.37.18h0"/>
  <path class="cls-2" d="M662.82,579.72h0l.92.18h.18l.55.55.74.55,1.11,3.32.37-.18,1.29-.18,2.4-.74h.18l1.84-.18.74.18.18.18.92.74.92.55.74.37.18-.18h.55l-.18-.18v-.55l.18-1.11v-.37l-.18-1.29.18-.74v-.18l.18-.55.18-.55v-.18l.55-.55.37-.74.55-.55.55.55h.18l1.11.74.18.18,1.29.92-1.29-.92-.18-.18-1.11-.74h-.18l-.55-.55-.55.55-.37.74-.55.55v.18l-.18.55-.18.55v.18l-.18.74.18,1.29v.37l-.18,1.11v.55l.18.18h-.55l-.18.18-.18.18-.18.18v.92h0l-1.11,2.21-1.47,2.95-.55,1.11-.18.74-2.21.37-.74.18-.55.18v.18l.55,2.03.74,2.21v.55l1.29,4.97.55,2.4-.55-2.4-1.29-4.97v-.55l-.74-2.21-.55-2.03v-.18l-.18-.74v-.18l-1.47-5.34-.55-2.21-.18-1.29-1.11-3.32-.37-1.11-.18-.74v-.55l.18-.92v-.74h0v-.18l-.18-.18v-.18l-.37-.37-.37-.18-.18-.18-.37-.18h-.74l-.92.37-1.11.92h-.18l-.55.55-.37.18-.74.55-3.5,2.58-3.13,2.4-1.29.92-2.21,1.66-2.4,1.84-4.42,3.13-.18.18-.18.18-3.5,2.76-1.11.92-.74.37-1.11.92-.92,1.11-.37.37-.74,2.03-.55,1.29-1.47,5.16-.18.37-1.29,3.32.55.18.92-2.21.37-1.11.92-3.13.18-.37,1.11-3.5.74-1.84.18-.18.74-.74,2.21-1.84.92-.74,1.29-1.11,2.03-1.84.55-.18.74-.55,3.13-2.4,2.4-1.84,2.58-1.84.92-.74,2.95-2.21.55-.37,3.68-2.58.55-.37.92-.92,1.29-.92h.18l.37.55"/>
  <path class="cls-1" d="M761.9,669.58l1.29,2.03-.55.74-.37.18h0"/>
  <path class="cls-2" d="M762.27,672.52h0l.92.18h.18l.55.55.74.55-.37-1.11-.18-.74v-.55l.18-.92v-.74h0v-.18l-.18-.18v-.18l-.37-.37-.37-.18-.18-.18-.37-.18h-.74l-.92.37-1.11.92h-.18l-.55.55-.37.18-.74.55-3.5,2.58-3.13,2.4-1.29.92-2.21,1.66-2.4,1.84-4.42,3.13-.18.18-.18.18-3.5,2.76-1.11.92.55.18.92-.74,1.29-1.11,1.84-1.47.18-.37.55-.18.74-.55,3.13-2.4,2.4-1.84,2.58-1.84-.18-.37-2.21,1.66-2.21-3.68-1.29-2.03-1.66-2.95-.55-.92-.55-.92-2.58,1.47-4.97,2.95-.92-1.47-.74-1.29-1.47-2.4-1.47-2.4-1.47-2.58-1.66-2.95-1.47-2.4,2.03-.92,3.32-1.47,2.76-1.29,1.66-.74-1.66.74,2.58,4.61,2.95,4.79,3.13,5.34.55.92.55.92,1.66,2.95,2.58-1.47,1.29,2.4,1.84,3.13.18.37.92-.74,2.95-2.21.55-.37,3.68-2.58.55-.37.92-.92,1.29-.92h.18l.37.55"/>
  <path class="cls-2" d="M454.36,667h0l.92.18h.18l.55.55.74.55-.37-1.11-.18-.74v-.55l.18-.92v-.74h0v-.18l.18-.37-.18-.37v-.18l-.18-.37v-.37l.18-.37v-.18l.18-.18h0l.18-.18,1.29-1.11,1.11-.74,4.24-3.5.18-.55,2.4-1.84.92.92-.92-.92-2.4,1.84.92,1.84,1.29,1.47,2.76,3.87,1.47,1.84.55.55h.18l1.11.74.18.18,1.29.92.74.37,1.66.92.92-1.11-.92,1.11-1.66-.92-.74-.37-1.29-.92-.18-.18-1.11-.74h-.18l-.55-.55-.55.55-.37.74-.55.55v.18l-.18.55-.18.55v.18l-.18.74.18,1.29v.37l-.18,1.11v.55l.18.18v2.03l.18,1.84.37,3.5v.74l.55,4.24h.18l1.29-.37h.18l2.76-.18-2.76.18h-.18l-1.29.37h-.18l-4.97,1.29-2.03.55h-.74v-.55l-.74-2.21-.55-2.03v-.18l-.18-.74v-.18l-1.47-5.34-.55-2.21-.18-1.29-1.11-3.32-.37-1.11-.18-.74v-.55l.18-.92v-.74h0v-.18l-.18-.18v-.18l-.37-.37-.37-.18-.18-.18-.37-.18h-.74l-.92.37-1.11.92h-.18l-.55.55-.37.18-.74.55-3.5,2.58-3.13,2.4-1.29.92.18.37.92-.74,2.95-2.21.55-.37,3.68-2.58.55-.37.92-.92,1.29-.92h.18l.37.55"/>
  <path class="cls-1" d="M453.99,664.05l1.29,2.03-.55.74-.37.18h0"/>
  <path class="cls-2" d="M186.62,663.96h0l.92.18h.18l.55.55.74.55-.37-1.11-.18-.74v-.55l.18-.92v-.74h0v-.18l.18-.37-.18-.37v-.18l-.18-.37v-.37l.18-.37v-.18l.18-.18h0l.18-.18,1.29-1.11,1.11-.74,4.24-3.5.18-.55.92,1.84,1.29,1.47,3.68-2.76v-.37h.37l.18-.18,1.11,1.66.92-.74-.92.74.92,1.11.37.37.55.92-1.66,2.95-1.29,2.03.55.55h.18l1.11.74.18.18,1.29.92.74.37,1.66.92,1.47.37h1.29-1.29l-1.47-.37-1.66-.92-.74-.37-1.29-.92-.18-.18-1.11-.74h-.18l-.55-.55-.55.55-.37.74-.55.55v.18l-.18.55-.18.55v.18l-.18.74.18,1.29v.37l-.18,1.11v.55l.18.18v2.03l.18,1.84.37,3.5v.74l.55,4.24h.18l1.29-.37h.18v.18l.18,2.76v.18l.37,3.32-.37-3.32v-.18l-.18-2.76v-.18h-.18l-1.29.37h-.18l-4.97,1.29-2.03.55h-.74v-.55l-.74-2.21-.55-2.03v-.18l-.18-.74v-.18l-1.47-5.34-.55-2.21-.18-1.29-1.11-3.32-.37-1.11-.18-.74v-.55l.18-.92v-.74h0v-.18l-.18-.18v-.18l-.37-.37-.37-.18-.18-.18-.37-.18h-.74l-.92.37-1.11.92h-.18l-.55.55-.37.18-.74.55-3.5,2.58-3.13,2.4-1.29.92.18.37.92-.74,2.95-2.21.55-.37,3.68-2.58.55-.37.92-.92,1.29-.92h.18l.37.55"/>
  <path class="cls-1" d="M186.25,661.01l1.29,2.03-.55.74-.37.18h0"/>
  <path class="cls-2" d="M272.43,661.56h0l.92.18h.18l.55.55.74.55-.37-1.11-.18-.74v-.55l.18-.92v-.74h0v-.18l.18-.37-.18-.37v-.18l-.18-.37v-.37l.18-.37v-.18l.18-.18h0l.18-.18,1.29-1.11,1.11-.74,4.24-3.5.18-.55-.37.18-.55.55-.55.37-3.32,2.58-.74.74-1.66,1.29h0l-.18.18-.55.55-1.47.74h.55l.92-.55.92-.55h0l.18-.18.18.18h.74l.18.18h.74l.37.18h.37l.55.18.37.18,3.5,1.84,1.66.74,2.03,1.11,1.11.55v-.18l.55-.55.37-.74.55-.55.55.55h.18l1.11.74.18.18,1.29.92.74.37,1.66.92,1.47.37-1.47-.37-1.66-.92-.74-.37-1.29-.92-.18-.18-1.11-.74h-.18l-.55-.55-.55.55-.37.74-.55.55v.18l-.18.55-.18.55v.18l-.18.74.18,1.29v.37l-.18,1.11v.55l.18.18h-.55l-.18.18-.18.18-.18.18v.92h0l-1.11,2.21-1.47,2.95-.55,1.11-.18.74-2.21.37-.74.18-.55.18v.18l.55,2.03.74,2.21v.55l1.29,4.97.74,3.13.18.74h-.55l-1.47.18,1.47-.18h.55l-.18-.74-.74-3.13-1.29-4.97v-.55l-.74-2.21-.55-2.03v-.18l-.18-.74v-.18l-1.47-5.34-.55-2.21-.18-1.29-1.11-3.32-.37-1.11-.18-.74v-.55l.18-.92v-.74h0v-.18l-.18-.18v-.18l-.37-.37-.37-.18-.18-.18-.37-.18h-.74l-.92.37-1.11.92h-.18l-.55.55-.37.18-.74.55-3.5,2.58-3.13,2.4-1.29.92.18.37.92-.74,2.95-2.21.55-.37,3.68-2.58.55-.37.92-.92,1.29-.92h.18l.37.55"/>
  <path class="cls-1" d="M272.06,658.61l1.29,2.03-.55.74-.37.18h0"/>
  <g>
    <path class="cls-2" d="M371.5,684.87h0l.92.18h.18l.55.55.74.55-.37-1.11-.18-.74v-.55l.18-.92v-.74h0v-.18l-.18-.18v-.18l-.37-.37-.37-.18-.18-.18-.37-.18h-.74l-.92.37-1.11.92h-.18l-.55.55-.37.18-.74.55-3.5,2.58-3.13,2.4-1.29.92-2.21,1.66-2.21-3.68-1.29-2.03-1.66-2.95-.55-.92-.55-.92-.74-1.29-2.4-4.05-2.95-4.79,2.58-1.47,4.61-2.76,4.42-2.76-.74-1.29-.92-1.47,2.03-.92.92-.37.74-.37,2.21-.92,2.95-1.29,5.53-2.4h.18l3.13-1.29.74-.37-.18-.55.18.55.92-.37,2.21-1.11,1.11-.37,2.95-1.29,3.13,3.87,1.47,1.66,1.47,1.66.37.55,1.84,2.21.37.37,2.4,3.13,1.11,1.29-.18.37-2.58,1.84-2.03,1.66-.74.55-2.03,1.66-2.03,1.47-2.4,1.84-.37.18-1.11.92-3.32,2.58-.74.74-1.66,1.29h0l-.18.18-.55.55-1.47.74-.92.37-1.11.92h-.18l-.55.55-.37.18-.74.55-3.5,2.58-3.13,2.4-1.29.92.18.37.92-.74,2.95-2.21.55-.37,3.68-2.58.55-.37.92-.92,1.29-.92h.18l.37.55"/>
    <path class="cls-1" d="M371.13,681.92l1.29,2.03-.55.74-.37.18h0"/>
  </g>
  <path class="cls-2" d="M638.32,692.97h0l.92.18h.18l.55.55.74.55-.37-1.11-.18-.74v-.55l.18-.92v-.74h0v-.18l.18-.37-.18-.37v-.18l-.18-.37v-.37l.18-.37v-.18l.18-.18h0l.18-.18,1.29-1.11,1.11-.74,4.24-3.5.18-.55,2.4-1.84,2.03-1.47,2.03-1.66.74-.55,2.03-1.66,2.58-1.84.18-.37.37-.18.37-.18-1.11-1.11-2.76-3.32-4.24-4.97-4.24-5.16,3.13-1.47,4.79-2.4-1.66-3.13v-.18l-1.66-3.87h0l2.4-1.47h.55l4.61-.74.74-.74.55-.55v-.18l1.84,2.03.18.18,3.13,3.5,1.47.74,2.4.92.37.55,1.47,2.58.92,1.29,1.47,2.4.74.55-.74.18-5.71,4.97-1.29,1.11-2.21,3.87-5.16,4.42-.37.18-.37.18-.18.37-2.58,1.84-2.03,1.66-.74.55-2.03,1.66-2.03,1.47-2.4,1.84-.37.18-1.11.92-3.32,2.58-.74.74-1.66,1.29h0l-.18.18-.55.55-1.47.74-.92.37-1.11.92h-.18l-.55.55-.37.18-.74.55-3.5,2.58-3.13,2.4-1.29.92.18.37.92-.74,2.95-2.21.55-.37,3.68-2.58.55-.37.92-.92,1.29-.92h.18l.37.55"/>
  <path class="cls-1" d="M637.95,690.03l1.29,2.03-.55.74-.37.18h0"/>
  <path class="cls-2" d="M103.76,686.53h0l.92.18h.18l.55.55.74.55-.37-1.11-.18-.74v-.55l.18-.92v-.74h0v-.18l-.18-.18v-.18l-.37-.37-.37-.18-.18-.18-.37-.18h-.74l-.55-.18-.37-.37-.92-1.29-.18-.18-1.11-2.03-2.4-4.24-.55-.74-.55.37-2.03,1.29-4.61,2.76-4.61,2.76-1.66-2.76-1.47-2.58-1.29-2.21-.18-.18-.92-1.66-.37-.74-2.58-4.24,5.16-2.03,4.79-2.03,2.03-.92.92-.37.74-.37,2.21-.92-1.66-2.76,1.66,2.76,2.95-1.29,5.53-2.4h.18l3.13-1.29.74-.37.92-.37,2.21-1.11,1.11-.37,2.95-1.29.37-.18h.18l3.13-1.47.92-.37-.92.37-3.13,1.47h-.18l-.37.18,3.13,3.87,1.47,1.66,1.47,1.66.37.55,1.84,2.21.37.37,2.4,3.13,1.11,1.29-.18.37-2.58,1.84-2.03,1.66-.74.55-2.03,1.66-2.03,1.47-2.4,1.84-.37.18-1.11.92-3.32,2.58-.74.74-1.66,1.29h0l-.18.18-.55.55-1.47.74-.92.37-1.11.92h-.18l-.55.55-.37.18-.74.55-3.5,2.58-3.13,2.4-1.29.92.18.37.92-.74,2.95-2.21.55-.37,3.68-2.58.55-.37.92-.92,1.29-.92h.18l.37.55"/>
  <path class="cls-1" d="M103.39,683.58l1.29,2.03-.55.74-.37.18h0"/>
  <path class="cls-1" d="M559.33,654.19l1.29,2.03-.55.74-.37.18h0"/>
  <path class="cls-2" d="M559.7,657.14h0l.92.18h.18l.55.55.74.55,1.11,3.32.37-.18,1.29-.18,2.4-.74h.18l1.84-.18.74.18.18.18.92.74.92.55.74.37.18-.18h.55l-.18-.18v-.55l.18-1.11v-.37l-.18-1.29.18-.74v-.18l.18-.55.18-.55v-.18l.55-.55.37-.74.55-.55.55.55h.18l.55.37-.55-.37h-.18l-.55-.55-.55.55-.37.74-.55.55v.18l-.18.55-.18.55v.18l-.18.74.18,1.29v.37l-.18,1.11v.55l.18.18v2.03l.18,1.84.37,3.5v.74l.55,4.24v.37l.37,4.97-3.13.74h-.37l-1.47.37-1.29.18-.55.18-1.29-4.97v-.55l-.74-2.21-.55-2.03v-.18l-.18-.74v-.18l-1.47-5.34-.55-2.21-.18-1.29-1.11-3.32-.37-1.11-.18-.74v-.55l.18-.92v-.74h0v-.18l-.18-.18v-.18l-.37-.37-.37-.18-.18-.18-.37-.18h-.74l-.92.37-1.11.92h-.18l-.55.55-.37.18-.74.55-3.5,2.58-3.13,2.4-1.29.92-2.21,1.66-2.4,1.84-4.42,3.13-.18.18-.18.18-3.5,2.76-1.11.92-.74.37-1.11.92-.92,1.11-.37.37-.74,2.03-.55,1.29-1.47,5.16-.18.37-1.29,3.32.55.18.92-2.21.37-.55.37-.18.55-.18h.37l.37-.18.18-.18h.18l.18-.18,1.29-.55.18-.18.18.18.37.18.74.74.55.55-.55-.55-.74-.74-.37-.18-.18-.18-.18.18-1.29.55-.18.18-.55-.18-.37-.37v-1.11l-.18-1.29,1.29-3.87.74-1.84.18-.18.74-.74,2.21-1.84.92-.74,1.29-1.11,2.03-1.84.55-.18.74-.55,3.13-2.4,2.4-1.84,2.58-1.84.92-.74,2.95-2.21.55-.37,3.68-2.58.55-.37.92-.92,1.29-.92h.18l.37.55"/>
  <path class="cls-1" d="M566.01,252.59l1.29,2.03-.55.74-.37.18h0"/>
  <path class="cls-2" d="M566.38,255.54h0l.92.18h.18l.55.55.74.55-.37-1.11-.18-.74v-.55l.18-.92v-.74h0v-.18l-.18-.18v-.18l-.37-.37-.37-.18-.18-.18-.37-.18h-.74l-.55-.18-.37-.37-.92-1.29-.18-.18-1.11-2.03-2.4-4.24-.55-.74-.37-.74-2.58-4.05v-.37l-2.95-4.79-.92-1.66-.55-.92-.37-.74-3.13-5.16-.74-.92-.74-1.47-1.11-1.84-.55-1.11-.37-.74-.55-.74-.74-1.11-1.29-2.4-.37-.74h-.92l-.74-.18-2.4-.37h-1.29l-.37-.18.37.18h1.29l2.4.37.74.18h.92l.37.74,1.29,2.4.74,1.11.55.74.37.74.55,1.11,1.11,1.84.74,1.47.74.92,3.13,5.16.37.74.55.92.92,1.66,2.95,4.79v.37l2.58,4.05.37.74.55.74,2.4,4.24,1.11,2.03.18.18.18,1.11v1.47l-.37.55h-.18l-.55.55-.37.18-.74.55-3.5,2.58-3.13,2.4-1.29.92.18.37.92-.74,2.95-2.21.55-.37,3.68-2.58.55-.37.92-.92,1.29-.92h.18l.37.55"/>
  <path class="cls-2" d="M313.28,223.57h0l.92.18h.18l.55.55.74.55,1.11,3.32.18,1.29.55,2.21,1.47,5.34v.18l.18.74v.18l.55,2.03.74,2.21v.55h-.55l-1.47.55-.55,2.21.37.37.37.37.74.55.18,1.11.55.37.55.92h0l.18.37v.55l-.37.92v.74h-4.24v-.18h-.18v-.18h-.18l-.18.18h0l-.18.18h-2.03l-.55.18-.55-.18-.92-.55-.74-.55h-.18l-.74-.74-.37-.55-.37-.18-.55-.37-1.47-.37-.74-.18-1.11.37-.37.18h-.37l-.37.37-.18.55-.18.55-.18.37-.18.74v.37-.37l.18-.74.18-.37.18-.55.18-.55.37-.37h.37l.37-.18,1.11-.37-.55-.55-1.47-1.29-.55-.74-.92-1.29-1.11-2.21-2.76.37-3.32-2.03-.55-.18-.55-.18-.37-.18h-.18l-.18-.18h-.18l-.37-.18-.55-.18-.55-.18-.55-.18-1.66-.18-2.03-.37-.55-.18-.74.37-1.11.92-.92,1.11-.37.37-.74,2.03-.55,1.29-.92-.18-2.03-.37,1.11-2.76,1.29-2.95.92.37,1.29,2.21.37.37.74-.74,2.21-1.84.92-.74,1.29-1.11,2.03-1.84.55-.18.74-.55,3.13-2.4,2.4-1.84,2.58-1.84.92-.74,2.95-2.21.55-.37,3.68-2.58.55-.37.92-.92,1.29-.92h.18l.37.55"/>
  <path class="cls-1" d="M312.91,220.62l1.29,2.03-.55.74-.37.18h0"/>
  <path class="cls-1" d="M646.64,214.73l1.29,2.03-.55.74-.37.18h0"/>
  <path class="cls-2" d="M647.01,217.68h0l.92.18h.18l.55.55.74.55-.37-1.11-.18-.74v-.55l.18-.92v-.74h0v-.18l-.18-.18v-.18l-.37-.37-.37-.18-.18-.18-.37-.18h-.74l-.92.37-1.11.92h-.18l-.55.55-.37.18-.74.55-3.5,2.58-3.13,2.4-1.29.92-2.21,1.66-2.4,1.84-4.42,3.13-.18.18-.18.18-3.5,2.76-1.11.92-.74.37-1.11.92-.92,1.11-.37.37-.74,2.03-.55,1.29-1.47,5.16-.18.37-1.29,3.32.55.18.37,6.45v4.24l6.08.37-6.08-.37v-4.24l-.37-6.45.92-2.21.37-1.11.92-3.13,1.29-3.87.74-1.84.18-.18.74-.74,2.21-1.84.92-.74,1.29-1.11,2.03-1.84.55-.18.74-.55,3.13-2.4,2.4-1.84,2.58-1.84.92-.74,2.95-2.21.55-.37,3.68-2.58.55-.37.92-.92,1.29-.92h.18l.37.55"/>
  <path class="cls-1" d="M232.28,226.89l1.29,2.03-.55.74-.37.18h0"/>
  <path class="cls-2" d="M232.65,229.84h0l.92.18h.18l.55.55.74.55-.37-1.11-.18-.74v-.55l.18-.92v-.74h0v-.18l-.18-.18v-.18l-.37-.37-.37-.18-.18-.18-.37-.18h-.74l-.92.37-1.11.92h-.18l-.55.55-.37.18-.74.55-3.5,2.58-3.13,2.4-1.29.92-2.21,1.66-2.4,1.84-4.42,3.13-.18.18-.18.18-3.5,2.76-1.11.92-.74.37-.92.37-1.11-.18-1.11-.37h-.18l-3.32-5.53-2.95-4.79-1.11-1.84-1.11-1.66-1.11-1.66-2.95-4.79-2.76,1.66-3.32,1.84-3.13,2.03-1.11-1.11.18.74.18,1.11v2.58h0v-2.58l-.18-1.11-.18-.74,1.11,1.11,2.21,2.58,2.4,1.29,5.71,3.68,2.4-1.47,2.76-1.66,2.95,4.79,3.32,5.53,1.29,2.21.37.37.74-.74,2.21-1.84.92-.74,1.29-1.11,2.03-1.84.55-.18.74-.55,3.13-2.4,2.4-1.84,2.58-1.84.92-.74,2.95-2.21.55-.37,3.68-2.58.55-.37.92-.92,1.29-.92h.18l.37.55"/>
  <path class="cls-2" d="M491.29,231.03l-.74.55-.55.55-.18.18-1.29,1.84-.74,1.11-.55.74-.18.18-.55.55-2.76,2.4.37,2.4.37.92.37,1.84-2.21.92-3.13.92-1.66.74-1.47-2.58-.55.18-1.47.74-.37.37v.18l-.18.18v.92l-.18,1.11v.18l-.55-.18-.55-.18-.37-.18h-.18l-.18-.18h-.18l-.37-.18-.55-.18-.55-.18-.55-.18-1.66-.18-2.03-.37.92-.74,1.29-1.11,2.03-1.84.55-.18.74-.55,3.13-2.4,2.4-1.84,2.58-1.84-.18-.37-2.21,1.66-2.4,1.84-4.42,3.13-.18.18-.18.18-1.66-2.95-.37-.55-.55-1.11-1.29-2.03-1.29-2.4-1.47-2.4-1.66-2.76,2.21-1.29,1.29-.92-1.29-2.4h-.18l-1.29.92h0l-2.21,1.29-1.66.92-1.47.92h-.18l-2.21,1.47-2.95,1.66,1.11,1.66,1.11,1.66,1.11,1.84,2.95,4.79,3.32,5.53,1.29,2.21.37.37.74-.74,2.21-1.84.92-.74,1.29-1.11,2.03-1.84.55-.18.74-.55,3.13-2.4,2.4-1.84,2.58-1.84.92-.74,2.95-2.21.55-.37,3.68-2.58.55-.37.92-.92,1.29-.92h.18l.37.55"/>
  <path class="cls-1" d="M490.92,228.09l1.29,2.03-.55.74-.37.18h0"/>
  <path class="cls-2" d="M391.13,228.45h0l.92.18h.18l.55.55.74.55-.37-1.11-.18-.74v-.55l.18-.92v-.74h0v-.18l.18-.37-.18-.37v-.18l-.18-.37v-.37l.18-.37v-.18l.18-.18h0l.18-.18,1.29-1.11,1.11-.74,4.24-3.5.18-.55.92,1.84,1.29,1.47,2.76,3.87.92,1.11.55.74-.55.55-.37.74-.55.55v.18l-.18.55-.18.55v.18l-.18.74.18,1.29v.37l-.18,1.11v.55l.18.18v2.03l.18,1.84.37,3.5v.74l.55,4.24v.37l.18,2.21-.18-2.21v-.37l-4.97,1.29-2.03.55h-1.29l-.74-.18-.55-.18-1.29-.37-.55-.18-1.84-.92h-.37l-.37-.18-.37-.37-.55-.18-.18-.92-1.47.37h-.37l-1.84.55-1.47.37-1.66.37-2.21.74-2.4.55-2.76.37-1.84,2.21-.74,1.11-.74,1.84-.55,1.84-.18.55h-.74l-.37-.18.37.18h.74l.18-.55.55-1.84.74-1.84.74-1.11,1.84-2.21-3.32-2.03-.55-.18-.55-.18-.37-.18h-.18l-.18-.18h-.18l-.37-.18-.55-.18-.55-.18-.55-.18-1.66-.18-2.03-.37.92-.74,1.29-1.11,2.03-1.84.55-.18.74-.55,3.13-2.4,2.4-1.84,2.58-1.84.92-.74,2.95-2.21.55-.37,3.68-2.58.55-.37.92-.92,1.29-.92h.18l.37.55"/>
  <path class="cls-1" d="M390.77,225.51l1.29,2.03-.55.74-.37.18h0"/>
  <path class="cls-1" d="M132.13,237.48l1.29,2.03-.55.74-.37.18h0"/>
  <path class="cls-2" d="M132.5,240.43h0l.92.18h.18l.55.55.74.55-.37-1.11-.18-.74v-.55l.18-.92v-.74h0v-.18l-.18-.18v-.18l-.37-.37-.37-.18-.18-.18-.37-.18h-.74l-.92.37-1.11.92h-.18l-.55.55-.37.18-.74.55-3.5,2.58-3.13,2.4-1.29.92-2.21,1.66-2.4,1.84-4.42,3.13-.18.18-.18.18-3.5,2.76-1.11.92-.74.37-.92.37-1.11-.18-1.11-.37h-.18l-3.32-5.53-2.95-4.79-1.11-1.84-1.11-1.66-1.11-1.66-2.95-4.79-2.4-4.05-1.47-2.58-1.84-2.76-3.68-5.53-3.32-5.34,1.47-.92-1.47.92,3.32,5.34,3.68,5.53,1.84,2.76,1.47,2.58,2.4,4.05,2.95,4.79,1.11,1.66,1.11,1.66,1.11,1.84,2.95,4.79,3.32,5.53,1.29,2.21.37.37.74-.74,2.21-1.84.92-.74,1.29-1.11,2.03-1.84.55-.18.74-.55,3.13-2.4,2.4-1.84,2.58-1.84.92-.74,2.95-2.21.55-.37,3.68-2.58.55-.37.92-.92,1.29-.92h.18l.37.55"/>
  <path class="cls-2" d="M706.26,251.67h0l.92.18h.18l.55.55.74.55-.37-1.11-.18-.74v-.55l.18-.92v-.74h0v-.18l.18-.37-.18-.37v-.18l-.18-.37v-.37l.18-.37v-.18l.18-.18h0l.18-.18,1.29-1.11,1.11-.74,4.24-3.5.18-.55,2.4-1.84,2.03-1.47,2.03-1.66.74-.55,2.03-1.66,2.58-1.84.18-.37.37-.18.37-.18,5.16-4.42,2.21-3.87,1.29-1.11,5.71-4.97.74-.18.55.55,1.29.74.74.55,1.66.92.37.18.92.74.18.18,5.16,3.5.74.55,3.5,2.4,1.11.55,5.16,3.5-.74.37-3.13.92,3.13-.92.74-.37-5.16-3.5-1.11-.55-3.5-2.4-.74-.55-5.16-3.5-.18-.18-.92-.74-.37-.18-1.66-.92-.74-.55-1.29-.74-.55-.55-.74.18-5.71,4.97-1.29,1.11-2.21,3.87-5.16,4.42-.37.18-.37.18-.18.37-2.58,1.84-2.03,1.66-.74.55-2.03,1.66-2.03,1.47-2.4,1.84-.37.18-1.11.92-3.32,2.58-.74.74-1.66,1.29h0l-.18.18-.55.55-1.47.74-.92.37-1.11.92h-.18l-.55.55-.37.18-.74.55-3.5,2.58-3.13,2.4-1.29.92.18.37.92-.74,2.95-2.21.55-.37,3.68-2.58.55-.37.92-.92,1.29-.92h.18l.37.55"/>
  <path class="cls-1" d="M705.89,248.72l1.29,2.03-.55.74-.37.18h0"/>
  <g>
    <path class="cls-2" d="M205.23,759.25h0l.92.18h.18l.55.55.74.55-.37-1.11-.18-.74v-.55l.18-.92v-.74h0v-.18l-.18-.18v-.18l-.37-.37-.37-.18-.18-.18-.37-.18h-.74l-.92.37-1.11.92h-.18l-.55.55-.37.18-.74.55-3.5,2.58-3.13,2.4-1.29.92-2.21,1.66-2.21-3.68-.37-.55-.92-1.47-1.66-2.95-.55-.92-.55-.92-3.13-5.34-2.95-4.79,2.58-1.47,4.61-2.76,1.47,2.4,1.47,2.4-2.95,1.84-1.84.92-1.29-2.21-.18-.18-1.29-2.4,4.61-2.76,4.42-2.76,2.4-1.29.37-.18.55-.37,2.21-1.47.55-.37.55-.55-.55.55-.55.37-2.21,1.47-.55.37,2.95,4.79v.37l2.58,4.05.37.74.55.74,2.4,4.24,1.11,2.03.18.18.18,1.11v1.47l-.37.55h-.18l-.55.55-.37.18-.74.55-3.5,2.58-3.13,2.4-1.29.92.18.37.92-.74,2.95-2.21.55-.37,3.68-2.58.55-.37.92-.92,1.29-.92h.18l.37.55"/>
    <path class="cls-1" d="M204.86,756.3l1.29,2.03-.55.74-.37.18h0"/>
  </g>
  <g>
    <path class="cls-2" d="M260.08,768.64h0l.92.18h.18l.55.55.74.55-.37-1.11-.18-.74v-.55l.18-.92v-.74h0v-.18l.18-.37-.18-.37v-.18l-.18-.37v-.37l.18-.37v-.18l.18-.18h0l.18-.18,1.29-1.11,1.11-.74,4.24-3.5.18-.55,2.4-1.84,2.03-1.47,2.03-1.66.74-.55,2.03-1.66,2.58-1.84.18-.37.37-.18.37-.18,5.16-4.42,2.21-3.87,1.29-1.11,5.71-4.97.74-.18,4.24-.74,2.21-.55,1.11-.74,1.47-1.11,1.47-1.84-.37-.55-1.66-2.21h-.37l-.74.18-1.66.74-.74.37-.74.74h-.18.18l.74-.74.74-.37,1.66-.74.74-.18h.37l1.66,2.21.37.55-1.47,1.84-1.47,1.11-1.11.74-2.21.55-4.24.74-.74.18-5.71,4.97-1.29,1.11-2.21,3.87-5.16,4.42-.37.18-.37.18-.18.37-2.58,1.84-2.03,1.66-.74.55-2.03,1.66-2.03,1.47-2.4,1.84-.37.18-1.11.92-3.32,2.58-.74.74-1.66,1.29h0l-.18.18-.55.55-1.47.74-.92.37-1.11.92h-.18l-.55.55-.37.18-.74.55-3.5,2.58-3.13,2.4-1.29.92.18.37.92-.74,2.95-2.21.55-.37,3.68-2.58.55-.37.92-.92,1.29-.92h.18l.37.55"/>
    <path class="cls-1" d="M259.71,765.7l1.29,2.03-.55.74-.37.18h0"/>
  </g>
  <g>
    <path class="cls-1" d="M88.84,771.41l1.29,2.03-.55.74-.37.18h0"/>
    <path class="cls-2" d="M89.2,774.36h0l.92.18h.18l.55.55.74.55-.37-1.11-.18-.74v-.55l.18-.92v-.74h0v-.18l.18-.37-.18-.37v-.18l-.18-.37v-.37l.18-.37v-.18l.18-.18h0l.18-.18,1.29-1.11,1.11-.74,4.24-3.5.18-.55,2.4-1.84,2.03-1.47,2.03-1.66.74-.55,2.03-1.66,2.58-1.84.18-.37.37-.18.37-.18,5.16-4.42,2.21-3.87,1.29-1.11,5.71-4.97.74-.18-.74-.55-1.47-2.4-.92-1.29-1.47-2.58-.37-.55-2.4-.92-1.47-.74-3.13-3.5-.18-.18-1.84-2.03h0l-.18-.18-1.29-1.47-.18-.18-1.11-1.11-1.11-1.29.55-.18-.55.18,1.11,1.29,1.11,1.11.18.18,1.29,1.47.18.18h0l1.84,2.03.18.18,3.13,3.5,1.47.74,2.4.92.37.55,1.47,2.58.92,1.29,1.47,2.4.74.55-.74.18-5.71,4.97-1.29,1.11-2.21,3.87-5.16,4.42-.37.18-.37.18-.18.37-2.58,1.84-2.03,1.66-.74.55-2.03,1.66-2.03,1.47-2.4,1.84-.37.18-1.11.92-3.32,2.58-.74.74-1.66,1.29h0l-.18.18-.55.55-1.47.74-.92.37-1.11.92h-.18l-.55.55-.37.18-.74.55-3.5,2.58-3.13,2.4-1.29.92.18.37.92-.74,2.95-2.21.55-.37,3.68-2.58.55-.37.92-.92,1.29-.92h.18l.37.55"/>
  </g>
  <g>
    <path class="cls-1" d="M360.91,728.67l1.29,2.03-.55.74-.37.18h0"/>
    <path class="cls-2" d="M361.28,731.61h0l.92.18h.18l.55.55.74.55,1.11,3.32.37-.18,1.29-.18,2.4-.74h.18l1.84-.18.74.18.18.18.92.74.92.55.74.37.18-.18h.55l-.18-.18v-.55l.18-1.11v-.37l-.18-1.29.18-.74v-.18l.18-.55.18-.55v-.18l.55-.55.37-.74.55-.55.55.55h.18l1.11.74.18.18,1.29.92.74.37,1.66.92,3.13-3.13h.37l1.66.55.55.18-.55-.18-1.66-.55h-.37l-3.13,3.13-1.66-.92-.74-.37-1.29-.92-.18-.18-1.11-.74h-.18l-.55-.55-.55.55-.37.74-.55.55v.18l-.18.55-.18.55v.18l-.18.74.18,1.29v.37l-.18,1.11v.55l.18.18v2.03l.18,1.84.37,3.5v.74l.55,4.24h.18l1.29-.37h.18v.18l.18,2.76v.18l.55-.18.37-.74,1.84-.37.18-.37-.18.37-1.84.37-.37.74-.55.18.37,3.68v.55l.18,1.66.18,1.66.37,1.84v2.21l.37,3.68-1.66.18h-2.21l-1.66.18h-2.4v1.11l.18,1.84h-6.08,6.08v.55h2.21v-3.5h-2.4l-.18-1.11-.18-2.03-.37-2.03-.18-2.58-.18-.74-.74-3.13-1.29-4.97v-.55l-.74-2.21-.55-2.03v-.18l-.18-.74v-.18l-1.47-5.34-.55-2.21-.18-1.29-1.11-3.32-.37-1.11-.18-.74v-.55l.18-.92v-.74h0v-.18l-.18-.18v-.18l-.37-.37-.37-.18-.18-.18-.37-.18h-.74l-.92.37-1.11.92h-.18l-.55.55-.37.18-.74.55-3.5,2.58-3.13,2.4-1.29.92.18.37.92-.74,2.95-2.21.55-.37,3.68-2.58.55-.37.92-.92,1.29-.92h.18l.37.55"/>
  </g>
  <path class="cls-1" d="M761.9,149.65l1.29,2.03-.55.74-.37.18h0"/>
  <path class="cls-2" d="M762.27,152.6h0l.92.18h.18l.55.55.74.55-.37-1.11-.18-.74v-.55l.18-.92v-.74h0v-.18l-.18-.18v-.18l-.37-.37-.37-.18-.18-.18-.37-.18h-.74l-.92.37-1.11.92h-.18l-.55.55-.37.18-.74.55-3.5,2.58-3.13,2.4-1.29.92-2.21,1.66-2.4,1.84-4.42,3.13-.18.18-.18.18-3.5,2.76-1.11.92-.74.37-1.11.92-.92,1.11-.37.37-.74,2.03-.55,1.29-1.47,5.16-.18.37-1.29,3.32-2.76,5.16-2.58-1.29-3.5-1.84-6.82-.18v1.29-1.29l6.82.18,3.5,1.84,2.4-4.24.55-.92,2.4,1.29.55.18.92-2.21.37-1.11.92-3.13,1.29-3.87.74-1.84.18-.18.74-.74,2.21-1.84.92-.74,1.29-1.11,2.03-1.84.55-.18.74-.55,3.13-2.4,2.4-1.84,2.58-1.84.92-.74,2.95-2.21.55-.37,3.68-2.58.55-.37.92-.92,1.29-.92h.18l.37.55"/>
  <path class="cls-2" d="M296.27,157.48h0l.92.18h.18l.55.55.74.55,1.11,3.32.37-.18,1.29-.18,2.4-.74h.18l1.84-.18.74.18.18.18.92.74.92.55.74.37.18-.18h.55l-.18-.18v-.55l.18-1.11v-.37l-.18-1.29.18-.74v-.18l.18-.55.18-.55v-.18l.55-.55.37-.74.55-.55.55.55h.18l.37.37-.37-.37h-.18l-.55-.55-.55.55-.37.74-.55.55v.18l-.18.55-.18.55v.18l-.18.74.18,1.29v.37l-.18,1.11v.55l.18.18v2.03l.18,1.84.37,3.5v.74l.55,4.24h.18l1.29-.37h.18l-.18-1.47-.37-2.95-.18-3.5.18-1.29v-1.84h.55l.18.18,1.29.74.18.18.55.55.37.55.55.92.37.55.18.37.18.18h.18l-.18,1.66.18-1.66h-.18l-.18-.18-.18-.37-.37-.55-.55-.92-.37-.55-.55-.55-.18-.18-1.29-.74-.18-.18h-.55v1.84l-.18,1.29.18,3.5.37,2.95.18,1.47h-.18l-1.29.37h-.18l-4.97,1.29-2.03.55h-.74l1.29,4.97.37.92-.37-.92-1.29-4.97v-.55l-.74-2.21-.55-2.03v-.18l-.18-.74v-.18l-1.47-5.34-.55-2.21-.18-1.29-1.11-3.32-.37-1.11-.18-.74v-.55l.18-.92v-.74h0v-.18l-.18-.18v-.18l-.37-.37-.37-.18-.18-.18-.37-.18h-.74l-.92.37-1.11.92h-.18l-.55.55-.37.18-.74.55-3.5,2.58-3.13,2.4-1.29.92.18.37.92-.74,2.95-2.21.55-.37,3.68-2.58.55-.37.92-.92,1.29-.92h.18l.37.55"/>
  <path class="cls-1" d="M295.9,154.53l1.29,2.03-.55.74-.37.18h0"/>
  <path class="cls-2" d="M652.01,178.12h0l.92.18h.18l.55.55.74.55-.37-1.11-.18-.74v-.55l.18-.92v-.74h0v-.18l-.18-.18v-.18l-.37-.37-.37-.18-.18-.18-.37-.18h-.74l-.55-.18-.37-.37-.92-1.29-.18-.18-1.11-2.03-2.4-4.24-.55-.74-.37-.74-2.58-4.05v-.37l-.55.37-2.21,1.29-4.42,2.58,1.29,2.58.92,1.29.74,1.47,4.61-2.76,2.03-1.29.55-.37.55-.18,2.21-1.47,2.76-1.66-2.4-4.05.92-.55,1.29-.92,2.4,4.24,2.95-1.66.74-.37,3.87-2.4,4.42-2.58.74.92,1.11,1.47.74.92v.55l-.37,3.32v1.29l-2.03,1.66-2.03,1.47-2.4,1.84-.37.18-1.11.92-3.32,2.58-.74.74-1.66,1.29h0l-.18.18-.55.55-1.47.74-.92.37-1.11.92h-.18l-.55.55-.37.18-.74.55-3.5,2.58-3.13,2.4-1.29.92.18.37.92-.74,2.95-2.21.55-.37,3.68-2.58.55-.37.92-.92,1.29-.92h.18l.37.55"/>
  <path class="cls-1" d="M651.64,175.17l1.29,2.03-.55.74-.37.18h0"/>
  <path class="cls-2" d="M204.81,183.46h0l.92.18h.18l.55.55.74.55-.37-1.11-.18-.74v-.55l.18-.92v-.74h0v-.18l-.18-.18v-.18l-.37-.37-.37-.18-.18-.18-.37-.18h-.74l-.55-.18-.37-.37-.92-1.29-.18-.18-1.11-2.03-2.4-4.24-.55-.74-.37-.74-2.58-4.05v-.37l.55-.37,2.21-1.29,2.58-1.66-1.47-2.58-.55-.74v-.18l-1.11-1.84-.74-1.29,5.53-2.4h.18l3.13-1.29.74-.37.92-.37,2.21-1.11,1.11-.37,2.95-1.29,3.13,3.87,1.47,1.66,1.47,1.66-1.47.55,1.47-.55.37.55,1.84,2.21.37.37,2.4,3.13,1.11,1.29.55.55,4.05,3.5,2.21,1.29.92.74h.18l1.11.92h.18l1.47.74.37.37.18.37h.37v.37l1.11.55.37.18-.74,1.11v.18l-1.11,1.11-.92-.74-.92-.55-.37-.37-1.29-.55-.92-.55v-.18l-1.11-.92h-.18l-2.76-1.66-2.03-1.29-.37-.18-1.11-.92-.18-.18-1.84-1.66-2.03,1.66-.74.55-2.03,1.66-2.03,1.47-2.4,1.84-.37.18-1.11.92-3.32,2.58-.74.74-1.66,1.29h0l-.18.18-.55.55-1.47.74-.92.37-1.11.92h-.18l-.55.55-.37.18-.74.55-3.5,2.58-3.13,2.4-1.29.92.18.37.92-.74,2.95-2.21.55-.37,3.68-2.58.55-.37.92-.92,1.29-.92h.18l.37.55"/>
  <path class="cls-1" d="M204.44,180.51l1.29,2.03-.55.74-.37.18h0"/>
  <path class="cls-2" d="M447.89,176.27h0l.92.18h.18l.55.55.74.55-.37-1.11-.18-.74v-.55l.18-.92v-.74h0v-.18l.18-.37-.18-.37v-.18l-.18-.37v-.37l.18-.37v-.18l.18-.18h0l.18-.18,1.29-1.11,1.11-.74,4.24-3.5.18-.55,2.4-1.84,2.03-1.47,2.03-1.66.74-.55,2.03-1.66,2.58-1.84.18-.37.55.55,4.05,3.5,2.21,1.29.92.74h.18l1.11.92h.18l1.47.74.37.37.18.37h.37l1.47.92,1.84,1.29.55.37.55.18.37.18.74.37.74.37.74.37,1.66.74.55.18.37.18,1.29.37.92.55.92.55.55.18.74.55-.18.74-.55,1.11-.18.55-2.03,5.9-.18.55-.18.55h-.55l-.55-.18h-2.76l-2.03-.18h-1.29,1.29l2.03.18h2.76l.55.18h.55l.18-.55.18-.55,2.03-5.9.18-.55.55-1.11.18-.74.18-.92-.37-.37h-.18l-.18-.18-.74-.55-.74-.37-1.11-.37-.37-.18-.55-.37-1.29-.37-1.29-.74-.55-.18-.55-.37-.92-.37-.74-.37-.92-.37-1.66-.92h-.55l-1.66-1.11-.37-.18-1.47-.74-.18-.18-1.11-.74-.37-.18-.74-.55-2.03-1.66-.74-.55-3.13-2.76-.55-.55-.37.18-.37.18-.18.37-2.58,1.84-2.03,1.66-.74.55-2.03,1.66-2.03,1.47-2.4,1.84-.37.18-1.11.92-3.32,2.58-.74.74-1.66,1.29h0l-.18.18-.55.55-1.47.74-.92.37-1.11.92h-.18l-.55.55-.37.18-.74.55-3.5,2.58-3.13,2.4-1.29.92.18.37.92-.74,2.95-2.21.55-.37,3.68-2.58.55-.37.92-.92,1.29-.92h.18l.37.55"/>
  <path class="cls-1" d="M447.52,173.33l1.29,2.03-.55.74-.37.18h0"/>
  <path class="cls-2" d="M89.2,183.55h0l.92.18h.18l.55.55.74.55-.37-1.11-.18-.74v-.55l.18-.92v-.74h0v-.18l.18-.37-.18-.37v-.18l-.18-.37v-.37l.18-.37v-.18l.18-.18h0l.18-.18,1.29-1.11,1.11-.74,4.24-3.5.18-.55,2.4-1.84,2.03-1.47,2.03-1.66.74-.55,2.03-1.66,2.58-1.84.18-.37.37-.18.37-.18,5.16-4.42,2.21-3.87,1.29-1.11,5.71-4.97.74-.18.55.55,1.29.74.74.55,1.66.92.37.18.92.74.18.18,5.16,3.5.74.55,3.5,2.4,1.11.55,5.16,3.5-.74.37-3.13.92,3.13-.92.74-.37-5.16-3.5-1.11-.55-3.5-2.4-.74-.55-5.16-3.5-.18-.18-.92-.74-.37-.18-1.66-.92-.74-.55-1.29-.74-.55-.55-.74.18-5.71,4.97-1.29,1.11-2.21,3.87-5.16,4.42-.37.18-.37.18-.18.37-2.58,1.84-2.03,1.66-.74.55-2.03,1.66-2.03,1.47-2.4,1.84-.37.18-1.11.92-3.32,2.58-.74.74-1.66,1.29h0l-.18.18-.55.55-1.47.74-.92.37-1.11.92h-.18l-.55.55-.37.18-.74.55-3.5,2.58-3.13,2.4-1.29.92.18.37.92-.74,2.95-2.21.55-.37,3.68-2.58.55-.37.92-.92,1.29-.92h.18l.37.55"/>
  <path class="cls-1" d="M88.84,180.6l1.29,2.03-.55.74-.37.18h0"/>
  <path class="cls-2" d="M569.2,184.2h0l.92.18h.18l.55.55.74.55-.37-1.11-.18-.74v-.55l.18-.92v-.74h0v-.18l-.18-.18v-.18l-.37-.37-.37-.18-.18-.18-.37-.18h-.74l-.92.37-1.11.92h-.18l-.55.55-.37.18-.74.55-3.5,2.58-3.13,2.4-1.29.92-2.21,1.66-2.21-3.68-2.58,1.47-2.21,1.47,2.21-1.47,2.58-1.47-1.29-2.03-1.66-2.95-.55-.92-.55-.92-3.13-5.34-2.95-4.79-2.58-4.61,2.58-1.11,5.16-2.03-.74-1.29.74,1.29,4.79-2.03,2.03-.92.92-.37.74-.37,2.21-.92,2.95-1.29,5.53-2.4h.18l3.13-1.29.74-.37.92-.37,2.21-1.11,1.11-.37,2.95-1.29.37-.18h.18l3.13-1.47,2.21-1.11-2.21,1.11-3.13,1.47h-.18l-.37.18,3.13,3.87,1.47,1.66,1.47,1.66.37.55,1.84,2.21.37.37,2.4,3.13,1.11,1.29-.18.37-2.58,1.84-2.03,1.66-.74.55-2.03,1.66-2.03,1.47-2.4,1.84-.37.18-1.11.92-3.32,2.58-.74.74-1.66,1.29h0l-.18.18-.55.55-1.47.74-.92.37-1.11.92h-.18l-.55.55-.37.18-.74.55-3.5,2.58-3.13,2.4-1.29.92.18.37.92-.74,2.95-2.21.55-.37,3.68-2.58.55-.37.92-.92,1.29-.92h.18l.37.55"/>
  <path class="cls-1" d="M568.83,181.25l1.29,2.03-.55.74-.37.18h0"/>
  <path class="cls-2" d="M388.29,179.68l-.74.55-.55.55-.18.18-1.29,1.84-.74,1.11-.55.74-.18.18-.55.55-2.76,2.4-1.84,1.29-1.47,1.11,1.47-1.11,1.84-1.29,2.76-2.4.55-.55.18-.18.55-.74.74-1.11,1.29-1.84.18-.18.55-.55.74-.55.92.18h.18l.55.55.74.55-.37-1.11-.18-.74v-.55l.18-.92v-.74h0v-.18l-.18-.18v-.18l-.37-.37-.37-.18-.18-.18-.37-.18h-.74l-.92.37-1.11.92h-.18l-.55.55-.37.18-.74.55-3.5,2.58-3.13,2.4-1.29.92-2.21,1.66-2.21-3.68-1.29-2.03-1.66-2.95-.55-.92-.55-.92-3.13-5.34-2.58,1.66,1.11,1.66.55.74,1.47,2.76,2.58-1.47,2.4-1.47,4.61-2.76,4.61-2.76,2.03-1.29.55-.37-.37-.74-2.58-4.05v-.37l-2.95-4.79-.92-1.66-.55-.92.74-.37,2.21-.92,2.95-1.29,5.53-2.4-.55-1.11-1.11-2.03,1.11,2.03.55,1.11-5.53,2.4-2.95,1.29-2.21.92-.74.37.55.92.92,1.66,2.95,4.79v.37l2.58,4.05.37.74.55.74,2.4,4.24,1.11,2.03.18.18.18,1.11v1.47l-.37.55h-.18l-.55.55-.37.18-.74.55-3.5,2.58-3.13,2.4-1.29.92.18.37.92-.74,2.95-2.21.55-.37,3.68-2.58.55-.37.92-.92,1.29-.92h.18l.37.55"/>
  <path class="cls-1" d="M387.92,176.73l1.29,2.03-.55.74-.37.18h0"/>
</svg>
